<svg width="264" height="86" viewBox="0 0 264 86" fill="none" xmlns="http://www.w3.org/2000/svg">
<path fill-rule="evenodd" clip-rule="evenodd" d="M173.299 0.772949H202.423V56.4209H145.317C148.689 47.3639 165.61 1.93395 165.785 1.57595L183.773 51.36L192.447 51.3369C192.447 51.3369 179.993 18.6029 173.299 0.772949Z" fill="#3F88C0"/>
<path fill-rule="evenodd" clip-rule="evenodd" d="M61.6758 0.75H158.127L136.296 56.398H61.6758V0.75ZM76.1471 51.414H84.1682V5.838H76.1471V51.414ZM123.068 38.335C123.107 39.5041 122.8 40.6591 122.186 41.658C121.603 42.5538 120.798 43.2871 119.848 43.788C118.816 44.3258 117.705 44.6971 116.555 44.888C115.328 45.1085 114.082 45.2176 112.834 45.214C110.697 45.222 108.564 45.0034 106.474 44.562C104.299 44.077 102.183 43.3629 100.162 42.432V49.48C101.954 50.462 103.893 51.1566 105.904 51.538C108.211 52.0252 110.563 52.2702 112.921 52.269C115.458 52.2937 117.988 52.0089 120.454 51.421C122.554 50.934 124.538 50.0479 126.296 48.812C127.886 47.6558 129.165 46.1305 130.02 44.37C130.935 42.3701 131.383 40.192 131.333 37.997C131.41 35.9783 131.016 33.9692 130.181 32.126C129.468 30.6542 128.401 29.3777 127.075 28.408C125.709 27.4212 124.187 26.6662 122.571 26.174C120.885 25.639 119.107 25.163 117.253 24.755C116.078 24.51 114.948 24.233 113.911 23.943C112.936 23.675 112 23.2802 111.129 22.769C110.354 22.3047 109.7 21.667 109.219 20.907C108.713 20.0351 108.468 19.0387 108.512 18.034C108.456 17.1656 108.623 16.2972 108.998 15.5102C109.373 14.7232 109.943 14.0433 110.655 13.534C112.486 12.4271 114.616 11.9036 116.757 12.034C118.733 12.0489 120.702 12.2586 122.635 12.66C124.869 13.1362 127.054 13.8175 129.161 14.695V7.55C127.203 6.71434 125.158 6.09429 123.063 5.701C120.753 5.23125 118.401 4.99404 116.043 4.993C113.909 4.96546 111.784 5.26018 109.74 5.867C107.95 6.39844 106.288 7.28623 104.856 8.476C103.439 9.69025 102.313 11.2036 101.563 12.905C100.707 14.8929 100.29 17.0393 100.342 19.2C100.283 21.0678 100.641 22.9254 101.392 24.64C102.046 26.0305 103.008 27.257 104.207 28.228C105.432 29.1955 106.815 29.9468 108.297 30.449C109.898 30.9985 111.53 31.4579 113.183 31.825C114.468 32.105 115.696 32.383 116.858 32.663C117.949 32.9212 119.01 33.2919 120.022 33.769C120.892 34.1724 121.653 34.7738 122.243 35.524C122.824 36.3454 123.115 37.3341 123.069 38.336L123.068 38.335Z" fill="#303562"/>
<path d="M3.98936 70.1221L4.31848 70.0571C4.63797 69.9825 4.95172 69.8855 5.25739 69.7671C5.55446 69.6531 5.82137 69.4736 6.0378 69.2421C6.27093 68.9776 6.44318 68.6661 6.54259 68.3291C6.6779 67.8605 6.7402 67.3742 6.72734 66.8871C6.78716 66.1957 6.57198 65.5085 6.12765 64.9721C5.92091 64.7704 5.67448 64.6131 5.4037 64.5099C5.13292 64.4067 4.84359 64.3597 4.55372 64.3721H4.06205C3.88784 64.383 3.71431 64.4027 3.54212 64.4311V76.1721H1V63.1941C1.26956 63.1741 1.55628 63.1551 1.87228 63.1391C2.18827 63.1231 2.51134 63.1001 2.85964 63.0871C3.20795 63.0741 3.54111 63.0641 3.86922 63.0451H4.85659C5.53572 63.0315 6.21303 63.1195 6.86565 63.3061C7.38335 63.4501 7.86369 63.7028 8.27401 64.0471C8.64278 64.36 8.92696 64.759 9.10086 65.2081C9.28914 65.7039 9.38194 66.2303 9.37445 66.7601C9.37804 67.3402 9.27543 67.9162 9.07158 68.4601C8.87422 68.9886 8.56037 69.4669 8.15286 69.8601C7.69569 70.2793 7.15365 70.5974 6.56278 70.7931C5.81883 71.0309 5.03933 71.1412 4.25791 71.1191H4.14484L3.98936 70.1221Z" fill="#231F20"/>
<path d="M14.3913 76.169V64.512L10.5488 64.453L10.677 63.126H20.8021L20.6769 64.411L16.9415 64.511V76.168L14.3913 76.169Z" fill="#231F20"/>
<path d="M23.7862 72.9729L25.4721 74.7149L23.7862 76.4699L22.1133 74.7149L23.7862 72.9729Z" fill="#231F20"/>
<path d="M34.0366 63.126H31.4976V76.169H34.0366V63.126Z" fill="#231F20"/>
<path d="M40.7503 70.7939H39.8911V76.1689H37.3521V63.1489C37.869 63.1099 38.4484 63.0809 39.0976 63.0539C39.7468 63.0269 40.3586 63.0079 40.9542 63.0079C42.1667 62.9281 43.3736 63.2306 44.4019 63.8719C44.8063 64.1922 45.1252 64.6059 45.3307 65.0766C45.5363 65.5472 45.6223 66.0607 45.5811 66.5719C45.5893 67.0557 45.5212 67.5379 45.3792 68.0009C45.2603 68.3807 45.0815 68.7395 44.8492 69.0639C44.6392 69.3553 44.3847 69.6127 44.095 69.8269C43.8134 70.0316 43.5109 70.2066 43.1925 70.3489C43.568 71.0209 43.9173 71.6489 44.2596 72.2489C44.562 72.7885 44.8992 73.3083 45.2692 73.8049C45.5595 74.2016 45.9056 74.5552 46.2969 74.8549C46.6162 75.1063 47.0117 75.2441 47.4196 75.2459H47.5054V76.0909C47.2785 76.1637 47.0463 76.2192 46.8108 76.2569C46.5198 76.301 46.2258 76.3218 45.9314 76.3189C45.5216 76.3252 45.1124 76.2826 44.7129 76.1919C44.3329 76.0926 43.9835 75.9024 43.6952 75.6379C43.2977 75.2747 42.9541 74.8575 42.6746 74.3989C42.2254 73.6807 41.8153 72.9394 41.4459 72.1779L40.7503 70.7939ZM40.3465 69.5059C40.6924 69.5068 41.0369 69.4607 41.3702 69.3689C41.6482 69.3083 41.9127 69.1978 42.1506 69.0429C42.2543 68.9703 42.3491 68.8861 42.4333 68.7919C42.5427 68.6703 42.6308 68.5314 42.6937 68.3809C42.782 68.1719 42.8441 67.9529 42.8785 67.7289C42.9325 67.4 42.9568 67.067 42.9512 66.7339C42.9607 66.3566 42.9095 65.9803 42.7997 65.6189C42.718 65.3415 42.5633 65.0906 42.3515 64.8919C42.1395 64.6996 41.8829 64.5622 41.6044 64.4919C41.2749 64.4068 40.9353 64.3661 40.5948 64.3709H40.2455C40.1272 64.3745 40.0094 64.3876 39.8932 64.4099V69.5039L40.3465 69.5059Z" fill="#231F20"/>
<path d="M57.0531 76.1691L55.568 71.7691L50.8563 71.8411L49.3419 76.1691H47.7266L52.6846 63.2371L55.1571 62.7971L59.7668 76.1691H57.0531ZM55.1793 70.5461L53.2823 64.9131L51.3227 70.5461H55.1793Z" fill="#231F20"/>
<path d="M64.1874 74.869C64.2732 74.869 64.3722 74.905 64.4842 74.918C64.5963 74.931 64.7185 74.941 64.8467 74.951L65.2021 74.977H65.4817C66.12 74.9875 66.758 74.9407 67.3878 74.837C67.8615 74.7551 68.3103 74.5678 68.7002 74.289C68.9104 74.1235 69.0956 73.9292 69.2505 73.712C69.4406 73.4317 69.5901 73.1264 69.6947 72.805C69.8384 72.3488 69.9378 71.88 69.9915 71.405C70.0708 70.7209 70.1072 70.0326 70.1005 69.344C70.1261 68.496 70.0024 67.65 69.7351 66.844C69.5347 66.2612 69.1961 65.7344 68.7477 65.308C68.332 64.9378 67.8328 64.6717 67.2919 64.532C66.7057 64.3821 66.1023 64.3084 65.4969 64.313H65.1677C65.0444 64.3092 64.9211 64.3169 64.7992 64.336L64.4439 64.369L64.1703 64.405V74.858L64.1874 74.869ZM61.6453 63.245L62.5842 63.154C62.9396 63.121 63.3182 63.092 63.717 63.069C64.1158 63.046 64.5176 63.023 64.9224 63.01C65.3273 62.997 65.7099 62.99 66.0582 62.99C66.9952 62.9743 67.9301 63.0839 68.8375 63.316C69.6215 63.5184 70.3517 63.8869 70.9779 64.396C71.5874 64.9152 72.0618 65.572 72.361 66.311C72.7094 67.2094 72.8761 68.1669 72.8516 69.129C72.8642 70.1205 72.7344 71.1087 72.466 72.064C72.2338 72.8984 71.8141 73.67 71.2383 74.321C70.639 74.9674 69.8934 75.4637 69.0627 75.769C68.0325 76.1296 66.9445 76.3011 65.8522 76.275H64.7417C64.356 76.275 63.9774 76.249 63.6059 76.226L62.5388 76.154C62.2097 76.128 61.8967 76.105 61.6362 76.076L61.6453 63.245Z" fill="#231F20"/>
<path d="M84.0064 76.169V70.298H78.3457V76.169H75.8076V63.126H78.3467V68.837H84.0074V63.126H86.5627V76.169H84.0064Z" fill="#231F20"/>
<path d="M92.4234 63.126H89.8843V76.169H92.4234V63.126Z" fill="#231F20"/>
<path d="M106.697 72.3501C106.697 72.8417 106.585 73.3271 106.368 73.7691C106.131 74.2647 105.795 74.7071 105.38 75.0691C104.925 75.4717 104.4 75.788 103.829 76.0021C103.181 76.2513 102.49 76.3742 101.794 76.3641C101.421 76.3663 101.048 76.3422 100.678 76.2921C100.344 76.2453 100.014 76.1764 99.6901 76.0861C99.3955 76.0068 99.1071 75.9065 98.827 75.7861C98.5503 75.6691 98.2767 75.5381 97.9971 75.3981L98.6261 73.4411C98.8555 73.5914 99.0965 73.7234 99.3469 73.8361C99.6672 73.9899 99.997 74.1235 100.334 74.2361C100.682 74.3575 101.037 74.4577 101.397 74.5361C101.987 74.6748 102.598 74.6949 103.195 74.5951C103.395 74.557 103.589 74.497 103.775 74.4161C103.887 74.3593 103.987 74.2797 104.066 74.1826C104.145 74.0854 104.203 73.9728 104.236 73.8521C104.36 73.4733 104.417 73.0761 104.404 72.6781C104.413 72.4798 104.378 72.2819 104.302 72.0983C104.226 71.9147 104.11 71.7498 103.963 71.6151C103.632 71.3296 103.257 71.0984 102.852 70.9301C102.411 70.7381 101.933 70.5421 101.42 70.3491C100.911 70.1593 100.428 69.9084 99.9809 69.6021C99.5305 69.2895 99.152 68.886 98.8704 68.4181C98.5505 67.8396 98.3979 67.185 98.4292 66.5261C98.4397 66.1108 98.5432 65.703 98.7321 65.3321C98.9457 64.8936 99.2406 64.4988 99.6013 64.1681C100.014 63.7949 100.494 63.5006 101.015 63.3001C101.627 63.0692 102.278 62.9585 102.933 62.9741C103.483 62.9738 104.033 63.0021 104.58 63.0591C105.11 63.1141 105.623 63.1891 106.114 63.2841L105.715 65.2251C105.467 65.1342 105.215 65.0568 104.958 64.9931C104.665 64.9151 104.376 64.8531 104.073 64.7931C103.77 64.7331 103.477 64.6931 103.193 64.6591C102.943 64.6272 102.691 64.6108 102.439 64.6101C102.209 64.6087 101.979 64.6197 101.751 64.6431C101.549 64.6654 101.355 64.7309 101.181 64.8351C101.006 64.948 100.88 65.1228 100.829 65.3241C100.754 65.5926 100.72 65.8707 100.728 66.1491C100.717 66.444 100.807 66.7339 100.984 66.9711C101.172 67.2032 101.402 67.398 101.663 67.5451C101.969 67.7195 102.288 67.8699 102.618 67.9951C102.98 68.1351 103.346 68.2791 103.721 68.4351C104.099 68.5914 104.466 68.7711 104.821 68.9731C105.175 69.1744 105.497 69.4272 105.776 69.7231C106.071 70.0372 106.301 70.405 106.454 70.8061C106.634 71.2971 106.718 71.8172 106.702 72.3391L106.697 72.3501Z" fill="#231F20"/>
<path d="M121.168 69.607C121.18 70.5498 121.047 71.4889 120.773 72.392C120.542 73.1798 120.137 73.9071 119.588 74.522C119.046 75.1217 118.369 75.5866 117.612 75.879C116.732 76.2088 115.797 76.3693 114.856 76.352C113.909 76.3755 112.966 76.2113 112.084 75.869C111.35 75.5763 110.7 75.1093 110.191 74.509C109.685 73.8812 109.317 73.1557 109.111 72.379C108.865 71.4754 108.747 70.5426 108.758 69.607C108.745 68.6773 108.864 67.7504 109.114 66.854C109.329 66.0875 109.707 65.3757 110.224 64.767C110.743 64.1812 111.397 63.728 112.13 63.446C113.006 63.1212 113.936 62.9651 114.87 62.986C115.813 62.9661 116.752 63.1222 117.637 63.446C118.39 63.7272 119.067 64.1796 119.612 64.767C120.153 65.3698 120.554 66.082 120.788 66.854C121.062 67.7459 121.195 68.6746 121.182 69.607H121.168ZM118.482 69.607C118.491 68.8886 118.423 68.1713 118.28 67.467C118.162 66.8979 117.939 66.3553 117.621 65.867C117.34 65.4428 116.952 65.0983 116.496 64.867C115.988 64.625 115.43 64.5063 114.866 64.521C114.347 64.5151 113.829 64.5753 113.326 64.7C112.919 64.7866 112.536 64.9569 112.2 65.2C111.839 65.5949 111.625 66.1002 111.594 66.632C111.443 67.6193 111.375 68.6175 111.392 69.616C111.388 70.3295 111.445 71.0422 111.564 71.746C111.664 72.3171 111.857 72.8681 112.137 73.377C112.387 73.821 112.753 74.1895 113.198 74.443C113.704 74.7077 114.272 74.837 114.844 74.818C115.407 74.8304 115.97 74.7688 116.517 74.635C116.912 74.5301 117.288 74.3611 117.628 74.135C117.811 73.9911 117.941 73.7915 117.999 73.567C118.12 73.2301 118.209 72.883 118.266 72.53C118.333 72.1193 118.386 71.6627 118.424 71.16C118.458 70.664 118.482 70.142 118.482 69.607Z" fill="#231F20"/>
<path d="M124.122 76.169V63.126H126.661V74.796H131.419L131.288 76.169H124.122Z" fill="#231F20"/>
<path d="M144.365 71.57C144.369 72.2033 144.245 72.8309 144 73.416C143.759 73.9952 143.391 74.5143 142.924 74.936C142.407 75.3958 141.803 75.7476 141.146 75.97C140.354 76.2395 139.52 76.3688 138.682 76.352C137.979 76.3596 137.277 76.2786 136.595 76.111C136.014 75.9695 135.472 75.702 135.007 75.328C134.551 74.947 134.199 74.4578 133.984 73.906C133.728 73.2188 133.607 72.4892 133.628 71.757V63.127H136.167V72.011C136.153 72.5316 136.211 73.0518 136.339 73.557C136.425 73.8935 136.604 74.1996 136.856 74.441C137.093 74.6527 137.387 74.7917 137.702 74.841C138.087 74.9075 138.477 74.938 138.868 74.932C139.339 74.9414 139.809 74.8856 140.264 74.766C140.61 74.6682 140.936 74.5138 141.23 74.309C141.37 74.2032 141.486 74.0698 141.572 73.9171C141.657 73.7644 141.71 73.5958 141.726 73.422C141.8 72.9342 141.834 72.4412 141.827 71.948V63.126H144.365V71.57Z" fill="#231F20"/>
<path d="M155.173 72.3499C155.172 72.8415 155.06 73.3266 154.844 73.7689C154.607 74.2643 154.271 74.7067 153.856 75.069C153.402 75.4715 152.876 75.7878 152.306 76.0019C151.658 76.2513 150.969 76.3743 150.274 76.3639C149.901 76.3661 149.528 76.342 149.158 76.2919C148.832 76.25 148.51 76.1869 148.193 76.1029C147.898 76.0241 147.609 75.9239 147.329 75.8029C147.05 75.6859 146.776 75.5549 146.5 75.4149L147.128 73.4579C147.357 73.6089 147.599 73.741 147.849 73.8529C148.17 74.0067 148.499 74.1403 148.837 74.2529C149.183 74.3748 149.537 74.475 149.897 74.5529C150.22 74.6301 150.551 74.6707 150.884 74.6739C151.159 74.6792 151.433 74.6584 151.704 74.612C151.903 74.5734 152.097 74.5134 152.283 74.433C152.396 74.3764 152.494 74.2968 152.573 74.1996C152.652 74.1024 152.709 73.9897 152.741 73.869C152.866 73.4904 152.924 73.0932 152.912 72.6949C152.921 72.4963 152.886 72.2982 152.81 72.1145C152.733 71.9308 152.616 71.7661 152.468 71.632C152.137 71.3462 151.762 71.1149 151.358 70.9469C150.913 70.7549 150.436 70.5589 149.925 70.3659C149.416 70.1761 148.933 69.9253 148.486 69.619C148.035 69.3073 147.657 68.9036 147.376 68.4349C147.055 67.8567 146.901 67.2021 146.932 66.543C146.941 66.1275 147.044 65.7194 147.234 65.349C147.448 64.9105 147.743 64.5157 148.104 64.1849C148.517 63.8118 148.996 63.5175 149.517 63.317C150.129 63.0861 150.781 62.9753 151.435 62.9909C151.985 62.9905 152.535 63.0189 153.082 63.076C153.615 63.131 154.126 63.2059 154.62 63.3009L154.216 65.242C153.963 65.1473 153.704 65.0669 153.442 65.0009C153.15 64.9229 152.856 64.8609 152.553 64.8009C152.25 64.7409 151.96 64.7009 151.677 64.6669C151.426 64.6349 151.173 64.6186 150.919 64.6179C150.691 64.6166 150.462 64.6276 150.235 64.651C150.032 64.6732 149.836 64.7387 149.661 64.843C149.488 64.9571 149.363 65.1315 149.312 65.332C149.235 65.6 149.198 65.8781 149.203 66.1569C149.193 66.4523 149.285 66.7422 149.464 66.979C149.651 67.2111 149.881 67.4059 150.142 67.5529C150.448 67.7279 150.767 67.8784 151.097 68.0029C151.456 68.1429 151.822 68.2869 152.197 68.4429C152.575 68.5998 152.944 68.7795 153.3 68.981C153.654 69.1831 153.976 69.4358 154.255 69.731C154.55 70.0451 154.78 70.4129 154.934 70.8139C155.11 71.3064 155.192 71.8276 155.173 72.3499Z" fill="#231F20"/>
<path d="M160.149 63.126H157.61V76.169H160.149V63.126Z" fill="#231F20"/>
<path d="M173.728 76.2449L164.887 67.0899H164.857C164.877 67.8533 164.897 68.5566 164.917 69.1999C164.917 69.4709 164.937 69.7449 164.94 70.0219C164.943 70.2989 164.94 70.5439 164.94 70.7749V76.1749H163.454V63.0449H164.565L173.406 72.1579C173.406 71.4646 173.396 70.8123 173.376 70.2009V63.1399H174.877V76.2399L173.728 76.2449Z" fill="#231F20"/>
<path d="M180.715 74.869C180.804 74.869 180.903 74.905 181.018 74.918C181.133 74.931 181.252 74.941 181.377 74.951L181.733 74.977H182.012C182.651 74.9875 183.289 74.9406 183.918 74.837C184.392 74.7561 184.842 74.5687 185.231 74.289C185.442 74.1236 185.628 73.9293 185.784 73.712C185.973 73.4315 186.122 73.1262 186.225 72.805C186.373 72.3494 186.474 71.8804 186.528 71.405C186.605 70.7207 186.638 70.0324 186.629 69.344C186.655 68.496 186.531 67.65 186.264 66.844C186.066 66.2599 185.727 65.7326 185.276 65.308C184.862 64.9379 184.364 64.6718 183.825 64.532C183.238 64.382 182.635 64.3084 182.03 64.313H181.7C181.576 64.3091 181.451 64.3168 181.328 64.336L180.973 64.369L180.699 64.405V74.858L180.715 74.869ZM178.176 63.245C178.442 63.216 178.755 63.19 179.111 63.154C179.466 63.118 179.849 63.092 180.247 63.069C180.644 63.046 181.046 63.023 181.452 63.01C181.858 62.997 182.235 62.99 182.588 62.99C183.525 62.9744 184.46 63.0841 185.367 63.316C186.151 63.5183 186.881 63.8868 187.508 64.396C188.117 64.9149 188.592 65.5718 188.891 66.311C189.242 67.2087 189.41 68.1665 189.384 69.129C189.395 70.1204 189.265 71.1084 188.999 72.064C188.765 72.8979 188.345 73.6692 187.77 74.321C187.172 74.9655 186.429 75.4607 185.6 75.766C184.569 76.1264 183.48 76.2978 182.387 76.272H181.276C180.891 76.272 180.512 76.246 180.141 76.223L179.074 76.151C178.728 76.125 178.415 76.102 178.171 76.073L178.176 63.245Z" fill="#231F20"/>
<path d="M204.373 69.607C204.386 70.5498 204.252 71.4889 203.979 72.392C203.746 73.179 203.343 73.9061 202.796 74.522C202.254 75.1207 201.577 75.5854 200.821 75.879C199.941 76.2088 199.005 76.3693 198.064 76.352C197.117 76.3755 196.175 76.2113 195.292 75.869C194.558 75.5762 193.908 75.1092 193.399 74.509C192.893 73.8811 192.526 73.1557 192.319 72.379C192.075 71.4751 191.957 70.5425 191.967 69.607C191.955 68.6773 192.074 67.7507 192.322 66.854C192.537 66.0874 192.915 65.3757 193.433 64.767C193.951 64.1812 194.605 63.728 195.339 63.446C196.214 63.1213 197.143 62.9652 198.078 62.986C199.021 62.9661 199.959 63.1222 200.844 63.446C201.597 63.7282 202.274 64.1805 202.82 64.767C203.358 65.3705 203.758 66.0825 203.992 66.854C204.266 67.7459 204.399 68.6746 204.386 69.607H204.373ZM201.687 69.607C201.696 68.8886 201.628 68.1712 201.485 67.467C201.368 66.8978 201.144 66.3553 200.827 65.867C200.545 65.4428 200.157 65.0983 199.701 64.867C199.188 64.6223 198.623 64.5036 198.054 64.521C197.535 64.5151 197.017 64.5752 196.514 64.7C196.107 64.7866 195.724 64.9569 195.388 65.2C195.027 65.5948 194.813 66.1002 194.782 66.632C194.634 67.6196 194.569 68.6177 194.589 69.616C194.583 70.3294 194.639 71.042 194.756 71.746C194.856 72.317 195.049 72.8679 195.329 73.377C195.578 73.821 195.944 74.1895 196.389 74.443C196.895 74.7077 197.463 74.837 198.035 74.818C198.599 74.8303 199.161 74.7688 199.708 74.635C200.112 74.5359 200.496 74.3695 200.844 74.143C201.027 73.9995 201.158 73.8003 201.216 73.576C201.337 73.2391 201.426 72.892 201.483 72.539C201.55 72.1283 201.603 71.6716 201.641 71.169C201.673 70.664 201.686 70.142 201.686 69.607H201.687Z" fill="#231F20"/>
<path d="M218.602 76.1691L217.13 71.7691L212.415 71.8411L210.9 76.1691H209.285L214.224 63.2371L216.696 62.7971L221.306 76.1691H218.602ZM216.728 70.5461L214.831 64.9131L212.871 70.5461H216.728Z" fill="#231F20"/>
<path d="M231.962 72.6439C231.972 73.1724 231.877 73.6977 231.683 74.1899C231.5 74.6382 231.205 75.0331 230.827 75.3379C230.397 75.6798 229.899 75.9267 229.365 76.0619C228.675 76.2399 227.963 76.3233 227.251 76.3099H226.322C225.967 76.3099 225.604 76.2899 225.229 76.2739C224.853 76.2579 224.487 76.2349 224.132 76.2119C223.777 76.1889 223.474 76.153 223.197 76.124V63.2259C223.702 63.1709 224.278 63.1309 224.923 63.1019C225.568 63.0729 226.181 63.0599 226.75 63.0599C227.388 63.0526 228.025 63.1116 228.65 63.2359C229.167 63.3319 229.664 63.5185 230.115 63.7869C230.506 64.0284 230.828 64.3651 231.05 64.7649C231.279 65.1991 231.392 65.6842 231.379 66.1739C231.386 66.5709 231.323 66.9661 231.194 67.3419C231.08 67.6587 230.913 67.9541 230.7 68.2159C230.503 68.4641 230.258 68.6714 229.98 68.8259C229.71 68.9774 229.423 69.0946 229.123 69.1749V69.2169C229.579 69.3004 230.016 69.4626 230.415 69.6959C230.753 69.8952 231.05 70.1565 231.29 70.4659C231.521 70.7646 231.692 71.104 231.795 71.4659C231.909 71.8538 231.965 72.256 231.962 72.6599V72.6439ZM228.791 66.4439C228.823 66.142 228.783 65.8368 228.673 65.5534C228.563 65.2699 228.387 65.0162 228.159 64.8129C227.624 64.4775 226.996 64.3166 226.364 64.3529H226.034C225.936 64.3486 225.838 64.3563 225.741 64.3759V68.5869H226.584C226.883 68.5864 227.181 68.557 227.474 68.4989C227.711 68.4638 227.941 68.3923 228.155 68.2869C228.24 68.2356 228.317 68.1719 228.382 68.0979C228.471 68.002 228.542 67.8917 228.593 67.7719C228.662 67.5973 228.712 67.416 228.742 67.2309C228.782 66.9685 228.801 66.7033 228.797 66.4379L228.791 66.4439ZM229.364 72.5009C229.39 72.1476 229.339 71.7928 229.214 71.4607C229.089 71.1287 228.893 70.8273 228.64 70.5769C228.047 70.1046 227.295 69.8718 226.536 69.9249H225.731V74.9309L225.925 74.9539H226.672C226.841 74.9565 227.009 74.9499 227.177 74.9339C227.355 74.9139 227.542 74.9009 227.723 74.8789C227.885 74.8576 228.045 74.8273 228.204 74.7879C228.326 74.7574 228.444 74.7138 228.556 74.6579C228.654 74.5915 228.746 74.5162 228.83 74.4329C228.936 74.3165 229.024 74.1859 229.093 74.0449C229.182 73.846 229.245 73.6366 229.281 73.4219C229.338 73.1188 229.366 72.8112 229.366 72.5029L229.364 72.5009Z" fill="#231F20"/>
<path d="M242.312 76.1691L240.837 71.7691L236.126 71.8411L234.611 76.1691H232.996L237.935 63.2371L240.407 62.7971L245.017 76.1691H242.312ZM240.439 70.5461L238.542 64.9131L236.566 70.5461H240.439Z" fill="#231F20"/>
<path d="M249.447 74.869C249.533 74.869 249.632 74.905 249.744 74.918C249.856 74.931 249.978 74.941 250.106 74.951L250.462 74.977H250.744C251.382 74.9874 252.019 74.9406 252.647 74.837C253.121 74.7551 253.57 74.5678 253.96 74.289C254.17 74.1235 254.355 73.9292 254.51 73.712C254.7 73.4317 254.85 73.1264 254.954 72.805C255.098 72.3488 255.197 71.88 255.251 71.405C255.33 70.7209 255.367 70.0326 255.36 69.344C255.386 68.496 255.262 67.65 254.995 66.844C254.794 66.2612 254.456 65.7344 254.007 65.308C253.592 64.9378 253.092 64.6717 252.551 64.532C251.966 64.3821 251.362 64.3085 250.757 64.313H250.428C250.305 64.3092 250.182 64.3169 250.06 64.336L249.704 64.369L249.431 64.405V74.858L249.447 74.869ZM246.905 63.245L247.844 63.154C248.199 63.121 248.578 63.092 248.977 63.069C249.375 63.046 249.777 63.023 250.182 63.01C250.587 62.997 250.969 62.99 251.318 62.99C252.255 62.9743 253.19 63.0839 254.097 63.316C254.881 63.5183 255.611 63.8868 256.237 64.396C256.849 64.914 257.325 65.5711 257.623 66.311C257.972 67.2094 258.139 68.1669 258.114 69.129C258.127 70.1205 257.997 71.1087 257.728 72.064C257.496 72.8985 257.076 73.67 256.5 74.321C255.902 74.9656 255.159 75.4607 254.33 75.766C253.3 76.1266 252.212 76.2981 251.12 76.272H250.009C249.624 76.272 249.245 76.246 248.873 76.223L247.806 76.151C247.461 76.125 247.148 76.102 246.904 76.073L246.905 63.245Z" fill="#231F20"/>
<path d="M263.606 63.126H261.067V76.169H263.606V63.126Z" fill="#231F20"/>
<path d="M3.98936 70.1221L4.31848 70.0571C4.63797 69.9825 4.95172 69.8855 5.25739 69.7671C5.55446 69.6531 5.82137 69.4736 6.0378 69.2421C6.27093 68.9776 6.44318 68.6661 6.54259 68.3291C6.6779 67.8605 6.7402 67.3742 6.72734 66.8871C6.78716 66.1957 6.57198 65.5085 6.12765 64.9721C5.92091 64.7704 5.67448 64.6131 5.4037 64.5099C5.13292 64.4067 4.84359 64.3597 4.55372 64.3721H4.06205C3.88784 64.383 3.71431 64.4027 3.54212 64.4311V76.1721H1V63.1941C1.26956 63.1741 1.55628 63.1551 1.87228 63.1391C2.18827 63.1231 2.51134 63.1001 2.85964 63.0871C3.20795 63.0741 3.54111 63.0641 3.86922 63.0451H4.85659C5.53572 63.0315 6.21303 63.1195 6.86565 63.3061C7.38335 63.4501 7.86369 63.7028 8.27401 64.0471C8.64278 64.36 8.92696 64.759 9.10086 65.2081C9.28914 65.7039 9.38194 66.2303 9.37445 66.7601C9.37804 67.3402 9.27543 67.9162 9.07158 68.4601C8.87422 68.9886 8.56037 69.4669 8.15286 69.8601C7.69569 70.2793 7.15364 70.5974 6.56278 70.7931C5.81883 71.0309 5.03933 71.1412 4.25791 71.1191H4.14484L3.98936 70.1221Z" stroke="#231F20" stroke-width="0.57" stroke-miterlimit="22.93"/>
<path d="M14.3913 76.169V64.512L10.5488 64.453L10.677 63.126H20.8021L20.6769 64.411L16.9415 64.511V76.168L14.3913 76.169Z" stroke="#231F20" stroke-width="0.57" stroke-miterlimit="22.93"/>
<path d="M23.7862 72.9729L25.4721 74.7149L23.7862 76.4699L22.1133 74.7149L23.7862 72.9729Z" stroke="#231F20" stroke-width="0.57" stroke-miterlimit="22.93"/>
<path d="M34.0366 63.126H31.4976V76.169H34.0366V63.126Z" stroke="#231F20" stroke-width="0.57" stroke-miterlimit="22.93"/>
<path d="M40.7503 70.7939H39.8911V76.1689H37.3521V63.1489C37.869 63.1099 38.4484 63.0809 39.0976 63.0539C39.7468 63.0269 40.3586 63.0079 40.9542 63.0079C42.1667 62.9281 43.3736 63.2306 44.4019 63.8719C44.8063 64.1922 45.1252 64.6059 45.3307 65.0766C45.5363 65.5472 45.6223 66.0607 45.5811 66.5719C45.5893 67.0557 45.5212 67.5379 45.3792 68.0009C45.2603 68.3807 45.0815 68.7395 44.8492 69.0639C44.6392 69.3553 44.3847 69.6127 44.095 69.8269C43.8134 70.0316 43.5109 70.2066 43.1925 70.3489C43.568 71.0209 43.9173 71.6489 44.2596 72.2489C44.562 72.7885 44.8992 73.3083 45.2692 73.8049C45.5595 74.2016 45.9056 74.5552 46.2969 74.8549C46.6162 75.1063 47.0116 75.2441 47.4196 75.2459H47.5054V76.0909C47.2785 76.1637 47.0463 76.2192 46.8108 76.2569C46.5198 76.301 46.2258 76.3218 45.9314 76.3189C45.5216 76.3252 45.1124 76.2826 44.7129 76.1919C44.3329 76.0926 43.9835 75.9024 43.6952 75.6379C43.2977 75.2747 42.9541 74.8575 42.6746 74.3989C42.2254 73.6807 41.8153 72.9394 41.4459 72.1779L40.7503 70.7939ZM40.3465 69.5059C40.6924 69.5068 41.0369 69.4607 41.3702 69.3689C41.6482 69.3083 41.9127 69.1978 42.1506 69.0429C42.2543 68.9703 42.3491 68.8861 42.4333 68.7919C42.5427 68.6703 42.6308 68.5314 42.6937 68.3809C42.782 68.1719 42.8441 67.9529 42.8785 67.7289C42.9325 67.4 42.9568 67.067 42.9512 66.7339C42.9607 66.3566 42.9095 65.9803 42.7997 65.6189C42.718 65.3415 42.5633 65.0906 42.3515 64.8919C42.1395 64.6996 41.8829 64.5622 41.6044 64.4919C41.2749 64.4068 40.9353 64.3661 40.5948 64.3709H40.2455C40.1272 64.3745 40.0094 64.3876 39.8932 64.4099V69.5039L40.3465 69.5059Z" stroke="#231F20" stroke-width="0.57" stroke-miterlimit="22.93"/>
<path d="M57.0531 76.1691L55.568 71.7691L50.8563 71.8411L49.3419 76.1691H47.7266L52.6846 63.2371L55.1571 62.7971L59.7668 76.1691H57.0531ZM55.1793 70.5461L53.2823 64.9131L51.3227 70.5461H55.1793Z" stroke="#231F20" stroke-width="0.57" stroke-miterlimit="22.93"/>
<path d="M64.1874 74.869C64.2732 74.869 64.3722 74.905 64.4842 74.918C64.5963 74.931 64.7185 74.941 64.8467 74.951L65.2021 74.977H65.4817C66.12 74.9875 66.758 74.9407 67.3878 74.837C67.8615 74.7551 68.3103 74.5678 68.7002 74.289C68.9104 74.1235 69.0956 73.9292 69.2505 73.712C69.4406 73.4317 69.5901 73.1264 69.6947 72.805C69.8384 72.3488 69.9378 71.88 69.9915 71.405C70.0708 70.7209 70.1072 70.0326 70.1005 69.344C70.1261 68.496 70.0024 67.65 69.7351 66.844C69.5347 66.2612 69.1961 65.7344 68.7477 65.308C68.332 64.9378 67.8328 64.6717 67.2919 64.532C66.7057 64.3821 66.1023 64.3084 65.4969 64.313H65.1677C65.0444 64.3092 64.9211 64.3169 64.7992 64.336L64.4439 64.369L64.1703 64.405V74.858L64.1874 74.869ZM61.6453 63.245L62.5842 63.154C62.9396 63.121 63.3182 63.092 63.717 63.069C64.1158 63.046 64.5176 63.023 64.9224 63.01C65.3273 62.997 65.7099 62.99 66.0582 62.99C66.9952 62.9743 67.9301 63.0839 68.8375 63.316C69.6215 63.5184 70.3517 63.8869 70.9779 64.396C71.5874 64.9152 72.0618 65.572 72.361 66.311C72.7094 67.2094 72.8761 68.1669 72.8516 69.129C72.8642 70.1205 72.7344 71.1087 72.466 72.064C72.2338 72.8984 71.8141 73.67 71.2383 74.321C70.639 74.9674 69.8934 75.4637 69.0627 75.769C68.0325 76.1296 66.9445 76.3011 65.8522 76.275H64.7417C64.356 76.275 63.9774 76.249 63.6059 76.226L62.5388 76.154C62.2097 76.128 61.8967 76.105 61.6362 76.076L61.6453 63.245Z" stroke="#231F20" stroke-width="0.57" stroke-miterlimit="22.93"/>
<path d="M84.0064 76.169V70.298H78.3457V76.169H75.8076V63.126H78.3467V68.837H84.0074V63.126H86.5627V76.169H84.0064Z" stroke="#231F20" stroke-width="0.57" stroke-miterlimit="22.93"/>
<path d="M92.4234 63.126H89.8843V76.169H92.4234V63.126Z" stroke="#231F20" stroke-width="0.57" stroke-miterlimit="22.93"/>
<path d="M106.697 72.3501C106.697 72.8417 106.585 73.3271 106.368 73.7691C106.131 74.2647 105.795 74.7071 105.38 75.0691C104.925 75.4717 104.4 75.788 103.829 76.0021C103.181 76.2513 102.49 76.3742 101.794 76.3641C101.421 76.3663 101.048 76.3422 100.678 76.2921C100.344 76.2453 100.014 76.1764 99.6901 76.0861C99.3955 76.0068 99.1071 75.9065 98.827 75.7861C98.5503 75.6691 98.2767 75.5381 97.9971 75.3981L98.6261 73.4411C98.8555 73.5914 99.0965 73.7234 99.3469 73.8361C99.6672 73.9899 99.997 74.1235 100.334 74.2361C100.682 74.3575 101.037 74.4577 101.397 74.5361C101.987 74.6748 102.598 74.6949 103.195 74.5951C103.395 74.557 103.589 74.497 103.775 74.4161C103.887 74.3593 103.987 74.2797 104.066 74.1826C104.145 74.0854 104.203 73.9728 104.236 73.8521C104.36 73.4733 104.417 73.0761 104.404 72.6781C104.413 72.4798 104.378 72.2819 104.302 72.0983C104.226 71.9147 104.11 71.7498 103.963 71.6151C103.632 71.3296 103.257 71.0984 102.852 70.9301C102.411 70.7381 101.933 70.5421 101.42 70.3491C100.911 70.1593 100.428 69.9084 99.9809 69.6021C99.5305 69.2895 99.152 68.886 98.8704 68.4181C98.5505 67.8396 98.3979 67.185 98.4292 66.5261C98.4397 66.1108 98.5432 65.703 98.7321 65.3321C98.9457 64.8936 99.2406 64.4988 99.6013 64.1681C100.014 63.7949 100.494 63.5006 101.015 63.3001C101.627 63.0692 102.278 62.9585 102.933 62.9741C103.483 62.9738 104.033 63.0021 104.58 63.0591C105.11 63.1141 105.623 63.1891 106.114 63.2841L105.715 65.2251C105.467 65.1342 105.215 65.0568 104.958 64.9931C104.665 64.9151 104.376 64.8531 104.073 64.7931C103.77 64.7331 103.477 64.6931 103.193 64.6591C102.943 64.6272 102.691 64.6108 102.439 64.6101C102.209 64.6087 101.979 64.6197 101.751 64.6431C101.549 64.6654 101.355 64.7309 101.181 64.8351C101.006 64.948 100.88 65.1228 100.829 65.3241C100.754 65.5926 100.72 65.8707 100.728 66.1491C100.717 66.444 100.807 66.7339 100.984 66.9711C101.172 67.2032 101.402 67.398 101.663 67.5451C101.969 67.7195 102.288 67.8699 102.618 67.9951C102.98 68.1351 103.346 68.2791 103.721 68.4351C104.099 68.5914 104.466 68.7711 104.821 68.9731C105.175 69.1744 105.497 69.4272 105.776 69.7231C106.071 70.0372 106.301 70.405 106.454 70.8061C106.634 71.2971 106.718 71.8172 106.702 72.3391L106.697 72.3501Z" stroke="#231F20" stroke-width="0.57" stroke-miterlimit="22.93"/>
<path d="M121.168 69.607C121.18 70.5498 121.047 71.4889 120.773 72.392C120.542 73.1798 120.137 73.9071 119.588 74.522C119.046 75.1217 118.369 75.5866 117.612 75.879C116.732 76.2088 115.797 76.3693 114.856 76.352C113.909 76.3755 112.966 76.2113 112.084 75.869C111.35 75.5763 110.7 75.1093 110.191 74.509C109.685 73.8812 109.317 73.1557 109.111 72.379C108.865 71.4754 108.747 70.5426 108.758 69.607C108.745 68.6773 108.864 67.7504 109.114 66.854C109.329 66.0875 109.707 65.3757 110.224 64.767C110.743 64.1812 111.397 63.728 112.13 63.446C113.006 63.1212 113.936 62.9651 114.87 62.986C115.813 62.9661 116.752 63.1222 117.637 63.446C118.39 63.7272 119.067 64.1796 119.612 64.767C120.153 65.3698 120.554 66.082 120.788 66.854C121.062 67.7459 121.195 68.6746 121.182 69.607H121.168ZM118.482 69.607C118.491 68.8886 118.423 68.1713 118.28 67.467C118.162 66.8979 117.939 66.3553 117.621 65.867C117.34 65.4428 116.952 65.0983 116.496 64.867C115.988 64.625 115.43 64.5063 114.866 64.521C114.347 64.5151 113.829 64.5753 113.326 64.7C112.919 64.7866 112.536 64.9569 112.2 65.2C111.839 65.5949 111.625 66.1002 111.594 66.632C111.443 67.6193 111.375 68.6175 111.392 69.616C111.388 70.3295 111.445 71.0422 111.564 71.746C111.664 72.3171 111.857 72.8681 112.137 73.377C112.387 73.821 112.753 74.1895 113.198 74.443C113.704 74.7077 114.272 74.837 114.844 74.818C115.407 74.8304 115.97 74.7688 116.517 74.635C116.912 74.5301 117.288 74.3611 117.628 74.135C117.811 73.9911 117.941 73.7915 117.999 73.567C118.12 73.2301 118.209 72.883 118.266 72.53C118.333 72.1193 118.386 71.6627 118.424 71.16C118.458 70.664 118.482 70.142 118.482 69.607Z" stroke="#231F20" stroke-width="0.57" stroke-miterlimit="22.93"/>
<path d="M124.122 76.169V63.126H126.661V74.796H131.419L131.288 76.169H124.122Z" stroke="#231F20" stroke-width="0.57" stroke-miterlimit="22.93"/>
<path d="M144.365 71.57C144.369 72.2033 144.245 72.8309 144 73.416C143.759 73.9952 143.391 74.5143 142.924 74.936C142.407 75.3958 141.803 75.7476 141.146 75.97C140.354 76.2395 139.52 76.3688 138.682 76.352C137.979 76.3596 137.277 76.2786 136.595 76.111C136.014 75.9695 135.472 75.702 135.007 75.328C134.551 74.947 134.199 74.4578 133.984 73.906C133.728 73.2188 133.607 72.4892 133.628 71.757V63.127H136.167V72.011C136.153 72.5316 136.211 73.0518 136.339 73.557C136.425 73.8935 136.604 74.1996 136.856 74.441C137.093 74.6527 137.387 74.7917 137.702 74.841C138.087 74.9075 138.477 74.938 138.868 74.932C139.339 74.9414 139.809 74.8856 140.264 74.766C140.61 74.6682 140.936 74.5138 141.23 74.309C141.37 74.2032 141.486 74.0698 141.572 73.9171C141.657 73.7644 141.71 73.5958 141.726 73.422C141.8 72.9342 141.834 72.4412 141.827 71.948V63.126H144.365V71.57Z" stroke="#231F20" stroke-width="0.57" stroke-miterlimit="22.93"/>
<path d="M155.173 72.3499C155.172 72.8415 155.06 73.3266 154.844 73.7689C154.607 74.2643 154.271 74.7067 153.856 75.069C153.402 75.4715 152.876 75.7878 152.306 76.0019C151.658 76.2513 150.969 76.3743 150.274 76.3639C149.901 76.3661 149.528 76.342 149.158 76.2919C148.832 76.25 148.51 76.1869 148.193 76.1029C147.898 76.0241 147.609 75.9239 147.329 75.8029C147.05 75.6859 146.776 75.5549 146.5 75.4149L147.128 73.4579C147.357 73.6089 147.599 73.741 147.849 73.8529C148.17 74.0067 148.499 74.1403 148.837 74.2529C149.183 74.3748 149.537 74.475 149.897 74.5529C150.22 74.6301 150.551 74.6707 150.884 74.6739C151.159 74.6792 151.433 74.6584 151.704 74.612C151.903 74.5734 152.097 74.5134 152.283 74.4329C152.396 74.3764 152.494 74.2968 152.573 74.1996C152.652 74.1024 152.709 73.9897 152.741 73.869C152.866 73.4904 152.924 73.0932 152.912 72.6949C152.921 72.4963 152.886 72.2982 152.81 72.1145C152.733 71.9308 152.616 71.7661 152.468 71.632C152.137 71.3462 151.762 71.1149 151.358 70.9469C150.913 70.7549 150.436 70.5589 149.925 70.3659C149.416 70.1761 148.933 69.9253 148.486 69.619C148.035 69.3073 147.657 68.9036 147.376 68.4349C147.055 67.8567 146.901 67.2021 146.932 66.543C146.941 66.1275 147.044 65.7194 147.234 65.349C147.448 64.9105 147.743 64.5157 148.104 64.1849C148.517 63.8118 148.996 63.5175 149.517 63.317C150.129 63.0861 150.781 62.9753 151.435 62.9909C151.985 62.9905 152.535 63.0189 153.082 63.076C153.615 63.131 154.126 63.2059 154.62 63.3009L154.216 65.242C153.963 65.1473 153.704 65.0669 153.442 65.0009C153.15 64.9229 152.856 64.8609 152.553 64.8009C152.25 64.7409 151.96 64.7009 151.677 64.6669C151.426 64.6349 151.173 64.6186 150.919 64.6179C150.691 64.6166 150.462 64.6276 150.235 64.651C150.032 64.6732 149.836 64.7387 149.661 64.843C149.488 64.9571 149.363 65.1315 149.312 65.332C149.235 65.6 149.198 65.8781 149.203 66.1569C149.193 66.4523 149.285 66.7422 149.464 66.979C149.651 67.2111 149.881 67.4059 150.142 67.5529C150.448 67.7279 150.767 67.8784 151.097 68.0029C151.456 68.1429 151.822 68.2869 152.197 68.4429C152.575 68.5998 152.944 68.7795 153.3 68.981C153.654 69.1831 153.976 69.4358 154.255 69.731C154.55 70.0451 154.78 70.4129 154.934 70.8139C155.11 71.3064 155.192 71.8276 155.173 72.3499Z" stroke="#231F20" stroke-width="0.57" stroke-miterlimit="22.93"/>
<path d="M160.149 63.126H157.61V76.169H160.149V63.126Z" stroke="#231F20" stroke-width="0.57" stroke-miterlimit="22.93"/>
<path d="M173.728 76.2449L164.887 67.0899H164.857C164.877 67.8533 164.897 68.5566 164.917 69.1999C164.917 69.4709 164.937 69.7449 164.94 70.0219C164.943 70.2989 164.94 70.5439 164.94 70.7749V76.1749H163.454V63.0449H164.565L173.406 72.1579C173.406 71.4646 173.396 70.8123 173.376 70.2009V63.1399H174.877V76.2399L173.728 76.2449Z" stroke="#231F20" stroke-width="0.57" stroke-miterlimit="22.93"/>
<path d="M180.715 74.869C180.804 74.869 180.903 74.905 181.018 74.918C181.133 74.931 181.252 74.941 181.377 74.951L181.733 74.977H182.012C182.651 74.9875 183.289 74.9406 183.918 74.837C184.392 74.7561 184.842 74.5687 185.231 74.289C185.442 74.1236 185.628 73.9293 185.784 73.712C185.973 73.4315 186.122 73.1262 186.225 72.805C186.373 72.3494 186.474 71.8804 186.528 71.405C186.605 70.7207 186.638 70.0324 186.629 69.344C186.655 68.496 186.531 67.65 186.264 66.844C186.066 66.2599 185.727 65.7326 185.276 65.308C184.862 64.9379 184.364 64.6718 183.825 64.532C183.238 64.382 182.635 64.3084 182.03 64.313H181.7C181.576 64.3091 181.451 64.3168 181.328 64.336L180.973 64.369L180.699 64.405V74.858L180.715 74.869ZM178.176 63.245C178.442 63.216 178.755 63.19 179.111 63.154C179.466 63.118 179.849 63.092 180.247 63.069C180.644 63.046 181.046 63.023 181.452 63.01C181.858 62.997 182.235 62.99 182.588 62.99C183.525 62.9744 184.46 63.0841 185.367 63.316C186.151 63.5183 186.881 63.8868 187.508 64.396C188.117 64.9149 188.592 65.5718 188.891 66.311C189.242 67.2087 189.41 68.1665 189.384 69.129C189.395 70.1204 189.265 71.1084 188.999 72.064C188.765 72.8979 188.345 73.6692 187.77 74.321C187.172 74.9655 186.429 75.4607 185.6 75.766C184.569 76.1264 183.48 76.2978 182.387 76.272H181.276C180.891 76.272 180.512 76.246 180.141 76.223L179.074 76.151C178.728 76.125 178.415 76.102 178.171 76.073L178.176 63.245Z" stroke="#231F20" stroke-width="0.57" stroke-miterlimit="22.93"/>
<path d="M204.373 69.607C204.386 70.5498 204.252 71.4889 203.979 72.392C203.746 73.179 203.343 73.9061 202.796 74.522C202.254 75.1207 201.577 75.5854 200.821 75.879C199.941 76.2088 199.005 76.3693 198.064 76.352C197.117 76.3755 196.175 76.2113 195.292 75.869C194.558 75.5762 193.908 75.1092 193.399 74.509C192.893 73.8811 192.526 73.1557 192.319 72.379C192.075 71.4751 191.957 70.5425 191.967 69.607C191.955 68.6773 192.074 67.7507 192.322 66.854C192.537 66.0874 192.915 65.3757 193.433 64.767C193.951 64.1812 194.605 63.728 195.339 63.446C196.214 63.1213 197.143 62.9652 198.078 62.986C199.021 62.9661 199.959 63.1222 200.844 63.446C201.597 63.7282 202.274 64.1805 202.82 64.767C203.358 65.3705 203.758 66.0825 203.992 66.854C204.266 67.7459 204.399 68.6746 204.386 69.607H204.373ZM201.687 69.607C201.696 68.8886 201.628 68.1712 201.485 67.467C201.368 66.8978 201.144 66.3553 200.827 65.867C200.545 65.4428 200.157 65.0983 199.701 64.867C199.188 64.6223 198.623 64.5036 198.054 64.521C197.535 64.5151 197.017 64.5752 196.514 64.7C196.107 64.7866 195.724 64.9569 195.388 65.2C195.027 65.5948 194.813 66.1002 194.782 66.632C194.634 67.6196 194.569 68.6177 194.589 69.616C194.583 70.3294 194.639 71.042 194.756 71.746C194.856 72.317 195.049 72.8679 195.329 73.377C195.578 73.821 195.944 74.1895 196.389 74.443C196.895 74.7077 197.463 74.837 198.035 74.818C198.599 74.8303 199.161 74.7688 199.708 74.635C200.112 74.5359 200.496 74.3695 200.844 74.143C201.027 73.9995 201.158 73.8003 201.216 73.576C201.337 73.2391 201.426 72.892 201.483 72.539C201.55 72.1283 201.603 71.6716 201.641 71.169C201.673 70.664 201.686 70.142 201.686 69.607H201.687Z" stroke="#231F20" stroke-width="0.57" stroke-miterlimit="22.93"/>
<path d="M218.602 76.1691L217.13 71.7691L212.415 71.8411L210.9 76.1691H209.285L214.224 63.2371L216.696 62.7971L221.306 76.1691H218.602ZM216.728 70.5461L214.831 64.9131L212.871 70.5461H216.728Z" stroke="#231F20" stroke-width="0.57" stroke-miterlimit="22.93"/>
<path d="M231.962 72.6439C231.972 73.1724 231.877 73.6977 231.683 74.1899C231.5 74.6382 231.205 75.0331 230.827 75.3379C230.397 75.6798 229.899 75.9267 229.365 76.0619C228.675 76.2399 227.963 76.3233 227.251 76.3099H226.322C225.967 76.3099 225.604 76.2899 225.229 76.2739C224.853 76.2579 224.487 76.2349 224.132 76.2119C223.777 76.1889 223.474 76.153 223.197 76.124V63.2259C223.702 63.1709 224.278 63.1309 224.923 63.1019C225.568 63.0729 226.181 63.0599 226.75 63.0599C227.388 63.0526 228.025 63.1116 228.65 63.2359C229.167 63.3319 229.664 63.5185 230.115 63.7869C230.506 64.0284 230.828 64.3651 231.05 64.7649C231.279 65.1991 231.392 65.6842 231.379 66.1739C231.386 66.5709 231.323 66.9661 231.194 67.3419C231.08 67.6587 230.913 67.9541 230.7 68.2159C230.503 68.4641 230.258 68.6714 229.98 68.8259C229.71 68.9774 229.423 69.0946 229.123 69.1749V69.2169C229.579 69.3004 230.016 69.4626 230.415 69.6959C230.753 69.8952 231.05 70.1565 231.29 70.4659C231.521 70.7646 231.692 71.104 231.795 71.4659C231.909 71.8538 231.965 72.256 231.962 72.6599V72.6439ZM228.791 66.4439C228.823 66.142 228.783 65.8368 228.673 65.5534C228.563 65.2699 228.387 65.0162 228.159 64.8129C227.624 64.4775 226.996 64.3166 226.364 64.3529H226.034C225.936 64.3486 225.838 64.3563 225.741 64.3759V68.5869H226.584C226.883 68.5864 227.181 68.557 227.474 68.4989C227.711 68.4638 227.941 68.3923 228.155 68.2869C228.24 68.2356 228.317 68.1719 228.382 68.0979C228.471 68.002 228.542 67.8917 228.593 67.7719C228.662 67.5973 228.712 67.416 228.742 67.2309C228.782 66.9685 228.801 66.7033 228.797 66.4379L228.791 66.4439ZM229.364 72.5009C229.39 72.1476 229.339 71.7928 229.214 71.4607C229.089 71.1287 228.893 70.8273 228.64 70.5769C228.047 70.1046 227.295 69.8718 226.536 69.9249H225.731V74.9309L225.925 74.9539H226.672C226.841 74.9565 227.009 74.9499 227.177 74.9339C227.355 74.9139 227.542 74.9009 227.723 74.8789C227.885 74.8576 228.045 74.8273 228.204 74.7879C228.326 74.7574 228.444 74.7138 228.556 74.6579C228.654 74.5915 228.746 74.5162 228.83 74.4329C228.936 74.3165 229.024 74.1859 229.093 74.0449C229.182 73.846 229.245 73.6366 229.281 73.4219C229.338 73.1188 229.366 72.8112 229.366 72.5029L229.364 72.5009Z" stroke="#231F20" stroke-width="0.57" stroke-miterlimit="22.93"/>
<path d="M242.312 76.1691L240.837 71.7691L236.126 71.8411L234.611 76.1691H232.996L237.935 63.2371L240.407 62.7971L245.017 76.1691H242.312ZM240.439 70.5461L238.542 64.9131L236.566 70.5461H240.439Z" stroke="#231F20" stroke-width="0.57" stroke-miterlimit="22.93"/>
<path d="M249.447 74.869C249.533 74.869 249.632 74.905 249.744 74.918C249.856 74.931 249.978 74.941 250.106 74.951L250.462 74.977H250.744C251.382 74.9874 252.019 74.9406 252.647 74.837C253.121 74.7551 253.57 74.5678 253.96 74.289C254.17 74.1235 254.355 73.9292 254.51 73.712C254.7 73.4317 254.85 73.1264 254.954 72.805C255.098 72.3488 255.197 71.88 255.251 71.405C255.33 70.7209 255.367 70.0326 255.36 69.344C255.386 68.496 255.262 67.65 254.995 66.844C254.794 66.2612 254.456 65.7344 254.007 65.308C253.592 64.9378 253.092 64.6717 252.551 64.532C251.966 64.3821 251.362 64.3085 250.757 64.313H250.428C250.305 64.3092 250.182 64.3169 250.06 64.336L249.704 64.369L249.431 64.405V74.858L249.447 74.869ZM246.905 63.245L247.844 63.154C248.199 63.121 248.578 63.092 248.977 63.069C249.375 63.046 249.777 63.023 250.182 63.01C250.587 62.997 250.969 62.99 251.318 62.99C252.255 62.9743 253.19 63.0839 254.097 63.316C254.881 63.5183 255.611 63.8868 256.237 64.396C256.849 64.914 257.325 65.5711 257.623 66.311C257.972 67.2094 258.139 68.1669 258.114 69.129C258.127 70.1205 257.997 71.1087 257.728 72.064C257.496 72.8985 257.076 73.67 256.5 74.321C255.902 74.9656 255.159 75.4607 254.33 75.766C253.3 76.1266 252.212 76.2981 251.12 76.272H250.009C249.624 76.272 249.245 76.246 248.873 76.223L247.806 76.151C247.461 76.125 247.148 76.102 246.904 76.073L246.905 63.245Z" stroke="#231F20" stroke-width="0.57" stroke-miterlimit="22.93"/>
<path d="M263.606 63.126H261.067V76.169H263.606V63.126Z" stroke="#231F20" stroke-width="0.57" stroke-miterlimit="22.93"/>
<path d="M73.2363 85.5461C72.9139 85.5495 72.5936 85.4942 72.2913 85.3831C72.0096 85.2774 71.7578 85.1058 71.5574 84.8831C71.3455 84.6532 71.187 84.3801 71.093 84.0831C70.9904 83.7504 70.9413 83.4038 70.9476 83.0561C70.9075 82.3932 71.1242 81.7402 71.5533 81.2301C71.7572 81.0066 72.011 80.8334 72.2944 80.7241C72.5939 80.6103 72.9125 80.554 73.2333 80.5581C73.4871 80.5561 73.74 80.5898 73.9844 80.6581C74.2081 80.7206 74.4187 80.8222 74.6063 80.9581C74.8197 81.1066 74.993 81.3047 75.1111 81.5351C75.2224 81.766 75.2924 82.0144 75.318 82.2691H74.2812C74.2565 82.03 74.1384 81.81 73.9521 81.6561C73.7454 81.4986 73.4886 81.4199 73.2282 81.4341C73.0539 81.4318 72.8813 81.4687 72.7234 81.5421C72.5696 81.6187 72.4364 81.7304 72.3347 81.8681C72.2213 82.0223 72.1375 82.1958 72.0874 82.3801C71.9731 82.8331 71.9731 83.307 72.0874 83.7601C72.1354 83.9443 72.218 84.118 72.3307 84.2721C72.4284 84.4106 72.5596 84.5227 72.7123 84.5981C72.8702 84.6713 73.0428 84.7082 73.2171 84.7061C73.4791 84.7178 73.7365 84.6355 73.942 84.4741C74.1287 84.3041 74.2459 84.072 74.2711 83.8221H75.315C75.2887 84.0808 75.2187 84.3333 75.1081 84.5691C74.9943 84.7703 74.8408 84.9468 74.6568 85.0881C74.4698 85.2386 74.2537 85.3495 74.0217 85.4141C73.768 85.4963 73.5033 85.5408 73.2363 85.5461Z" fill="#3F88C0"/>
<path d="M78.5338 81.886C78.7882 81.8819 79.0412 81.9228 79.2809 82.007C79.4944 82.0785 79.6883 82.1979 79.8473 82.356C80.0084 82.5174 80.1309 82.7125 80.2057 82.927C80.3726 83.4359 80.3726 83.9841 80.2057 84.493C80.1309 84.7084 80.0084 84.9045 79.8473 85.067C79.6855 85.221 79.4924 85.3389 79.2809 85.413C78.7971 85.5738 78.2736 85.5738 77.7898 85.413C77.5739 85.3402 77.3777 85.2195 77.2162 85.06C77.0547 84.9006 76.9321 84.7066 76.8579 84.493C76.6867 83.9848 76.6867 83.4352 76.8579 82.927C76.9352 82.7121 77.0601 82.517 77.2234 82.356C77.3819 82.1973 77.576 82.0777 77.7898 82.007C78.0286 81.9231 78.2805 81.8822 78.5338 81.886ZM78.5338 84.821C78.6413 84.8254 78.7482 84.8036 78.8451 84.7576C78.9421 84.7115 79.0262 84.6427 79.0901 84.557C79.2243 84.3 79.2944 84.0149 79.2944 83.7255C79.2944 83.4362 79.2243 83.151 79.0901 82.894C79.024 82.8108 78.9397 82.7436 78.8435 82.6973C78.7473 82.6511 78.6418 82.627 78.5348 82.627C78.4279 82.627 78.3224 82.6511 78.2262 82.6973C78.13 82.7436 78.0457 82.8108 77.9796 82.894C77.8454 83.151 77.7754 83.4362 77.7754 83.7255C77.7754 84.0149 77.8454 84.3 77.9796 84.557C78.0449 84.6393 78.1293 84.7048 78.2256 84.748C78.3219 84.7912 78.4273 84.8107 78.5328 84.805L78.5338 84.821Z" fill="#3F88C0"/>
<path d="M87.1997 85.4549H86.1901V83.2669C86.2028 83.0978 86.1679 82.9285 86.0892 82.7779C86.0524 82.7268 86.0025 82.6865 85.9446 82.6611C85.8867 82.6358 85.8229 82.6264 85.76 82.6339C85.6295 82.6351 85.5023 82.6748 85.3946 82.7479C85.2584 82.8371 85.1375 82.9471 85.0362 83.0739V85.4479H84.0266V83.2659C84.0388 83.0974 84.0057 82.9286 83.9307 82.7769C83.8954 82.7283 83.848 82.6896 83.7932 82.6643C83.7384 82.6391 83.678 82.6283 83.6177 82.6329C83.4864 82.6349 83.3584 82.6745 83.2492 82.7469C83.1114 82.8329 82.991 82.9434 82.8939 83.0729V85.4469H81.8691V81.9599H82.8565V82.3969C82.9822 82.2382 83.142 82.1093 83.3244 82.0195C83.5067 81.9298 83.7069 81.8814 83.9105 81.8779C84.1398 81.8651 84.3681 81.9171 84.5688 82.0279C84.7439 82.1356 84.8756 82.3004 84.9413 82.4939C85.0901 82.3147 85.2683 82.1616 85.4683 82.0409C85.6491 81.9325 85.8567 81.8761 86.068 81.8779C86.8322 81.8779 87.2138 82.3049 87.2138 83.1659L87.1997 85.4549Z" fill="#3F88C0"/>
<path d="M94.2407 85.454H93.22V83.266C93.2327 83.0968 93.1978 82.9276 93.1191 82.777C93.0818 82.7264 93.0318 82.6865 92.974 82.6612C92.9162 82.636 92.8527 82.6262 92.79 82.633C92.6594 82.6343 92.5322 82.674 92.4245 82.747C92.289 82.837 92.1682 82.9469 92.0661 83.073V85.447H91.0615V83.265C91.0738 83.0964 91.0407 82.9277 90.9656 82.776C90.9305 82.7272 90.8832 82.6882 90.8284 82.663C90.7735 82.6378 90.713 82.6271 90.6527 82.632C90.5213 82.634 90.3934 82.6736 90.2842 82.746C90.147 82.8327 90.0266 82.9431 89.9288 83.072V85.446H88.9102V81.959H89.8975V82.396C90.0238 82.2372 90.1842 82.1083 90.367 82.0186C90.5498 81.9288 90.7505 81.8804 90.9545 81.877C91.1838 81.8649 91.4119 81.9168 91.6128 82.027C91.7861 82.1366 91.9173 82.3007 91.9853 82.493C92.1339 82.3147 92.3109 82.1616 92.5093 82.04C92.6902 81.9319 92.8977 81.8755 93.109 81.877C93.8732 81.877 94.2548 82.304 94.2548 83.165L94.2407 85.454Z" fill="#3F88C0"/>
<path d="M96.9734 85.454H95.9497V81.961H96.9734V85.448V85.454ZM96.9734 81.403H95.9497V80.603H96.9734V81.403Z" fill="#3F88C0"/>
<path d="M100.421 85.4671C100.24 85.5025 100.056 85.5189 99.8709 85.5161C99.6608 85.527 99.4507 85.4929 99.2551 85.4161C99.1164 85.3556 99.001 85.2525 98.9259 85.1221C98.8547 84.9796 98.8144 84.8239 98.8078 84.6651C98.8078 84.4861 98.7876 84.2871 98.7876 84.0651V82.6951H98.3232V81.9641H98.7876V81.0901H99.7972V81.9641H100.377V82.6881H99.7972V84.2471C99.7967 84.3379 99.8044 84.4286 99.8204 84.5181C99.8321 84.5781 99.8544 84.6357 99.8861 84.6881C99.9118 84.7238 99.9466 84.7521 99.987 84.7701C100.031 84.7864 100.078 84.7942 100.125 84.7931C100.22 84.7928 100.315 84.7841 100.408 84.7671L100.421 85.4671Z" fill="#3F88C0"/>
<path d="M103.5 85.4671C103.319 85.5026 103.135 85.519 102.95 85.5161C102.741 85.5267 102.532 85.4926 102.337 85.4161C102.199 85.3556 102.083 85.2525 102.008 85.1221C101.935 84.9799 101.894 84.8242 101.886 84.6651C101.886 84.4861 101.866 84.2871 101.866 84.0651V82.6951H101.401V81.9641H101.866V81.0901H102.875V81.9641H103.452V82.6881H102.875V84.2471C102.873 84.338 102.881 84.4289 102.899 84.5181C102.909 84.5785 102.931 84.6363 102.964 84.6881C102.99 84.7241 103.024 84.7525 103.065 84.7701C103.109 84.7862 103.156 84.794 103.203 84.7931C103.298 84.7928 103.393 84.7841 103.486 84.7671L103.5 85.4671Z" fill="#3F88C0"/>
<path d="M106.516 85.5489C106.248 85.5535 105.982 85.5105 105.729 85.4219C105.51 85.3469 105.311 85.2243 105.146 85.0629C104.985 84.9032 104.864 84.7088 104.791 84.4949C104.706 84.2495 104.664 83.9913 104.669 83.7319C104.665 83.4702 104.706 83.2097 104.791 82.9619C104.866 82.7474 104.988 82.5516 105.146 82.3879C105.306 82.2277 105.5 82.1042 105.713 82.0259C105.957 81.9405 106.214 81.8985 106.473 81.9019C106.726 81.8977 106.978 81.9387 107.217 82.0229C107.428 82.0946 107.619 82.213 107.776 82.3689C107.934 82.5283 108.054 82.7197 108.129 82.9299C108.215 83.1773 108.258 83.438 108.254 83.6999V83.9189H105.715C105.713 84.0704 105.735 84.2211 105.78 84.3659C105.814 84.4787 105.871 84.5833 105.948 84.6729C106.015 84.7499 106.1 84.8102 106.195 84.8489C106.301 84.8863 106.412 84.9039 106.524 84.9009C106.688 84.9075 106.851 84.8668 106.992 84.7839C107.122 84.6928 107.211 84.5545 107.239 84.3989H108.194C108.164 84.5736 108.095 84.7395 107.992 84.8849C107.895 85.0234 107.772 85.1419 107.63 85.2339C107.478 85.3326 107.31 85.4053 107.133 85.4489C106.933 85.4999 106.727 85.5251 106.52 85.5239L106.516 85.5489ZM107.24 83.3539C107.237 83.118 107.158 82.8893 107.013 82.7019C106.944 82.6293 106.86 82.5725 106.767 82.5354C106.674 82.4982 106.573 82.4817 106.473 82.4869C106.374 82.4839 106.275 82.5032 106.184 82.5433C106.093 82.5835 106.013 82.6436 105.949 82.7189C105.8 82.9041 105.72 83.1342 105.722 83.3709L107.24 83.3539Z" fill="#3F88C0"/>
<path d="M112.015 82.891C111.919 82.8029 111.807 82.7322 111.686 82.682C111.567 82.634 111.439 82.6096 111.31 82.61C111.207 82.6067 111.105 82.631 111.014 82.6805C110.924 82.7299 110.849 82.8027 110.797 82.891C110.664 83.1525 110.604 83.444 110.622 83.736C110.622 84.45 110.836 84.806 111.28 84.806C111.42 84.8065 111.557 84.7643 111.672 84.685C111.799 84.5885 111.91 84.4732 112.001 84.343V82.892L112.015 82.891ZM112.051 85.024C111.918 85.1798 111.755 85.3074 111.571 85.399C111.395 85.488 111.199 85.534 111.002 85.533C110.793 85.5357 110.586 85.4934 110.396 85.409C110.222 85.3288 110.071 85.208 109.955 85.057C109.827 84.8875 109.736 84.6943 109.685 84.489C109.62 84.2433 109.589 83.99 109.593 83.736C109.589 83.4802 109.623 83.2251 109.694 82.979C109.752 82.7674 109.852 82.569 109.987 82.395C110.111 82.2359 110.271 82.1075 110.454 82.02C110.647 81.9288 110.859 81.8829 111.073 81.886C111.254 81.8821 111.435 81.9098 111.606 81.968C111.762 82.0217 111.903 82.11 112.018 82.226V80.634H113.036V85.454H112.048L112.051 85.024Z" fill="#3F88C0"/>
<path d="M121.522 81.515H120.086V85.455H119.058V81.515H117.623V80.634H121.522V81.515Z" fill="#3F88C0"/>
<path d="M124.556 81.886C124.811 81.8821 125.064 81.9231 125.303 82.007C125.517 82.0784 125.711 82.1979 125.87 82.356C126.033 82.5211 126.155 82.7209 126.228 82.94C126.395 83.4489 126.395 83.9971 126.228 84.506C126.153 84.7214 126.031 84.9175 125.87 85.08C125.708 85.2339 125.515 85.3519 125.303 85.426C124.82 85.5867 124.296 85.5867 123.812 85.426C123.6 85.3526 123.407 85.2345 123.246 85.08C123.081 84.9188 122.956 84.7225 122.88 84.506C122.709 83.9978 122.709 83.4482 122.88 82.94C122.956 82.7244 123.082 82.5291 123.246 82.369C123.404 82.2102 123.598 82.0907 123.812 82.02C124.051 81.9361 124.303 81.8951 124.556 81.899V81.886ZM124.556 84.821C124.663 84.8248 124.77 84.8028 124.866 84.7568C124.962 84.7108 125.046 84.6422 125.11 84.557C125.246 84.3006 125.317 84.0152 125.317 83.7255C125.317 83.4358 125.246 83.1504 125.11 82.894C125.044 82.8099 124.96 82.7419 124.864 82.695C124.767 82.6482 124.662 82.6239 124.554 82.6239C124.447 82.6239 124.341 82.6482 124.245 82.695C124.149 82.7419 124.065 82.8099 123.999 82.894C123.865 83.151 123.795 83.4362 123.795 83.7255C123.795 84.0149 123.865 84.3 123.999 84.557C124.064 84.6393 124.149 84.7048 124.245 84.748C124.341 84.7911 124.447 84.8107 124.552 84.805L124.556 84.821Z" fill="#3F88C0"/>
<path d="M132.756 81.968L131.732 85.455H130.745L130.119 83.055L129.487 85.455H128.522L127.491 81.968H128.479L129.029 84.46L129.687 81.968H130.586L131.225 84.46L131.807 81.968H132.756Z" fill="#3F88C0"/>
<path d="M136.289 83.8731H135.96C135.693 83.8579 135.426 83.9023 135.179 84.0031C135.096 84.0417 135.026 84.1044 134.98 84.183C134.933 84.2616 134.912 84.3523 134.919 84.4431C134.914 84.5109 134.926 84.5789 134.954 84.6409C134.982 84.7029 135.026 84.7569 135.08 84.7981C135.203 84.8776 135.349 84.9165 135.495 84.9091C135.652 84.9094 135.807 84.8752 135.95 84.8091C136.077 84.7496 136.189 84.6628 136.279 84.5551V83.8701L136.289 83.8731ZM136.312 85.1421C136.158 85.2758 135.979 85.3778 135.785 85.4421C135.572 85.5079 135.35 85.5399 135.127 85.5371C134.96 85.5383 134.794 85.5164 134.633 85.4721C134.491 85.4355 134.359 85.3702 134.244 85.2801C134.133 85.1938 134.045 85.0819 133.988 84.9541C133.923 84.815 133.892 84.6631 133.896 84.5101C133.886 84.3242 133.929 84.1393 134.021 83.977C134.113 83.8148 134.25 83.6819 134.416 83.5941C134.911 83.3677 135.456 83.2666 136 83.3001H136.293V83.1211C136.297 83.0658 136.297 83.0103 136.293 82.9551C136.291 82.8849 136.275 82.8157 136.245 82.7518C136.216 82.6879 136.173 82.6306 136.121 82.5831C135.986 82.4892 135.821 82.4454 135.657 82.4591C135.482 82.4468 135.307 82.4914 135.16 82.5861C135.104 82.6295 135.059 82.6858 135.03 82.7501C135.001 82.8144 134.988 82.8847 134.992 82.9551H134.061C134.113 82.2417 134.662 81.8841 135.707 81.8821H136.089C136.194 81.8896 136.299 81.905 136.402 81.9281C136.493 81.9463 136.582 81.9724 136.668 82.0061C136.753 82.0409 136.834 82.0824 136.912 82.1301C136.982 82.1766 137.046 82.2313 137.102 82.2931C137.158 82.3589 137.204 82.4327 137.238 82.5121C137.278 82.6047 137.306 82.7022 137.321 82.8021C137.339 82.9286 137.347 83.0563 137.347 83.1841V85.4371H136.359L136.312 85.1421Z" fill="#3F88C0"/>
<path d="M141.293 82.783C141.232 82.768 141.171 82.7569 141.108 82.75H140.874C140.719 82.75 140.566 82.7842 140.426 82.85C140.275 82.928 140.144 83.0396 140.044 83.176V85.459H139.021V81.959H140.009V82.52C140.128 82.3259 140.289 82.16 140.479 82.034C140.64 81.9325 140.826 81.8781 141.016 81.877H141.155C141.201 81.8766 141.247 81.8844 141.29 81.9L141.293 82.783Z" fill="#3F88C0"/>
<path d="M144.853 82.891C144.756 82.803 144.645 82.7322 144.524 82.682C144.405 82.634 144.277 82.6096 144.148 82.61C144.045 82.6067 143.943 82.631 143.852 82.6805C143.762 82.7299 143.687 82.8027 143.634 82.891C143.502 83.1525 143.442 83.444 143.46 83.736C143.46 84.45 143.674 84.806 144.118 84.806C144.258 84.8065 144.395 84.7643 144.51 84.685C144.637 84.5885 144.748 84.4732 144.839 84.343V82.892L144.853 82.891ZM144.889 85.024C144.756 85.1799 144.593 85.3074 144.409 85.399C144.232 85.488 144.037 85.534 143.839 85.533C143.631 85.536 143.424 85.4937 143.234 85.409C143.06 85.3288 142.909 85.208 142.792 85.057C142.665 84.8875 142.573 84.6943 142.523 84.489C142.458 84.2433 142.427 83.99 142.431 83.736C142.427 83.4802 142.461 83.2251 142.532 82.979C142.59 82.7674 142.69 82.569 142.825 82.395C142.948 82.2362 143.107 82.1079 143.289 82.02C143.483 81.9291 143.696 81.8833 143.911 81.886C144.092 81.8821 144.273 81.9098 144.444 81.968C144.599 82.0217 144.74 82.11 144.856 82.226V80.634H145.87V85.454H144.882L144.889 85.024Z" fill="#3F88C0"/>
<path d="M148.973 85.5489C148.737 85.553 148.501 85.5288 148.271 85.4769C148.095 85.4399 147.929 85.3689 147.781 85.2679C147.651 85.1796 147.546 85.0593 147.478 84.9189C147.401 84.7628 147.36 84.5923 147.355 84.4189H148.287C148.287 84.4949 148.301 84.5702 148.331 84.6404C148.36 84.7105 148.404 84.774 148.459 84.8269C148.607 84.9304 148.788 84.9789 148.969 84.9639C149.127 84.9737 149.284 84.9361 149.42 84.8559C149.473 84.8199 149.515 84.7709 149.543 84.7137C149.571 84.6566 149.583 84.5932 149.579 84.5299C149.581 84.4699 149.564 84.4107 149.532 84.3599C149.493 84.3105 149.442 84.2713 149.384 84.2459C149.303 84.2071 149.218 84.1766 149.13 84.1549L148.762 84.0599C148.587 84.0209 148.433 83.9719 148.265 83.9229C148.117 83.8795 147.976 83.8148 147.847 83.7309C147.728 83.6529 147.63 83.5476 147.56 83.4239C147.487 83.2762 147.452 83.1125 147.459 82.9479C147.459 82.8007 147.493 82.6554 147.56 82.5239C147.626 82.3941 147.724 82.2822 147.843 82.1979C147.984 82.0964 148.142 82.0212 148.311 81.9759C148.516 81.9176 148.729 81.89 148.943 81.8939C149.334 81.8666 149.724 81.9576 150.062 82.1549C150.182 82.2421 150.28 82.3567 150.345 82.489C150.411 82.6213 150.444 82.7674 150.441 82.9149H149.551C149.551 82.8514 149.535 82.789 149.506 82.7324C149.477 82.6759 149.435 82.6268 149.384 82.5889C149.255 82.5062 149.102 82.4662 148.949 82.4749C148.812 82.4703 148.677 82.5051 148.56 82.5749C148.512 82.6024 148.472 82.6425 148.445 82.6909C148.419 82.7392 148.406 82.7939 148.408 82.8489C148.407 82.9027 148.417 82.9563 148.438 83.0059C148.465 83.0512 148.503 83.0885 148.55 83.1139C148.625 83.1534 148.705 83.184 148.787 83.2049C148.888 83.2379 149.024 83.2699 149.191 83.3049C149.412 83.3569 149.606 83.4049 149.773 83.4649C149.924 83.5091 150.066 83.5766 150.194 83.6649C150.302 83.7435 150.389 83.8464 150.448 83.9649C150.511 84.1054 150.54 84.2584 150.534 84.4119C150.536 84.5664 150.506 84.7197 150.445 84.8619C150.38 85.0006 150.282 85.1222 150.161 85.2169C150.015 85.3253 149.85 85.4051 149.673 85.4519C149.446 85.5159 149.21 85.5485 148.973 85.5489Z" fill="#3F88C0"/>
<path d="M157.182 85.5489C156.631 85.5804 156.084 85.4341 155.624 85.1319C155.433 84.9803 155.279 84.7877 155.174 84.5685C155.069 84.3494 155.016 84.1094 155.018 83.8669H156.004C156.01 83.9923 156.043 84.1151 156.099 84.2274C156.156 84.3397 156.236 84.439 156.334 84.5189C156.57 84.6733 156.851 84.7477 157.134 84.7309C157.389 84.7439 157.642 84.6886 157.868 84.5709C157.952 84.5258 158.021 84.4587 158.069 84.377C158.116 84.2953 158.14 84.2022 158.138 84.1079C158.14 84.028 158.117 83.9494 158.072 83.8829C158.019 83.8131 157.95 83.7571 157.87 83.7199C157.765 83.6667 157.655 83.6232 157.541 83.5899C157.406 83.5509 157.248 83.5079 157.067 83.4659L156.882 83.4139C156.655 83.3549 156.434 83.2929 156.224 83.2349C156.032 83.181 155.849 83.0999 155.68 82.9939C155.526 82.8967 155.398 82.7635 155.308 82.6059C155.208 82.4162 155.159 82.2039 155.167 81.9899C155.161 81.7692 155.215 81.5509 155.321 81.3569C155.423 81.1806 155.565 81.0301 155.736 80.9169C155.92 80.7947 156.126 80.7063 156.342 80.6559C156.58 80.5986 156.824 80.57 157.07 80.5709C157.34 80.5667 157.609 80.6004 157.87 80.6709C158.094 80.7314 158.304 80.8331 158.489 80.9709C158.659 81.0967 158.797 81.2596 158.893 81.4469C158.991 81.6441 159.045 81.86 159.051 82.0799H158.07C158.063 81.9782 158.034 81.8792 157.984 81.7901C157.934 81.701 157.864 81.6241 157.78 81.5649C157.577 81.454 157.349 81.3937 157.117 81.3892C156.884 81.3846 156.655 81.436 156.447 81.5389C156.376 81.5815 156.317 81.642 156.277 81.7141C156.237 81.7863 156.217 81.8676 156.22 81.9499C156.219 82.0238 156.239 82.0963 156.279 82.1589C156.326 82.2227 156.387 82.275 156.457 82.3119C156.562 82.3623 156.673 82.4028 156.786 82.4329C156.911 82.4696 157.063 82.5086 157.24 82.5499L157.751 82.6669C157.909 82.7031 158.065 82.7478 158.218 82.8009C158.358 82.848 158.494 82.908 158.622 82.9799C158.739 83.0454 158.844 83.1302 158.932 83.2309C159.021 83.3347 159.09 83.4541 159.134 83.5829C159.183 83.7368 159.206 83.8976 159.203 84.0589C159.207 84.279 159.159 84.4971 159.062 84.6949C158.967 84.8805 158.829 85.0405 158.658 85.1609C158.466 85.2965 158.251 85.3949 158.023 85.4509C157.748 85.5205 157.465 85.5535 157.182 85.5489Z" fill="#3F88C0"/>
<path d="M162.383 81.886C162.637 81.8819 162.89 81.9228 163.13 82.007C163.344 82.0785 163.537 82.1979 163.696 82.356C163.858 82.5174 163.98 82.7125 164.055 82.927C164.222 83.4359 164.222 83.9841 164.055 84.493C163.98 84.7084 163.858 84.9045 163.696 85.067C163.535 85.221 163.342 85.3389 163.13 85.413C162.646 85.5738 162.123 85.5738 161.639 85.413C161.427 85.3397 161.234 85.2216 161.073 85.067C160.908 84.9059 160.783 84.7095 160.707 84.493C160.536 83.9848 160.536 83.4352 160.707 82.927C160.783 82.7115 160.908 82.5161 161.073 82.356C161.231 82.1973 161.425 82.0777 161.639 82.007C161.878 81.9231 162.13 81.8821 162.383 81.886ZM162.383 84.821C162.49 84.8249 162.596 84.8029 162.693 84.7569C162.789 84.7108 162.873 84.6423 162.936 84.557C163.072 84.3006 163.143 84.0152 163.143 83.7255C163.143 83.4358 163.072 83.1505 162.936 82.894C162.871 82.81 162.787 82.7419 162.69 82.6951C162.594 82.6483 162.488 82.6239 162.381 82.6239C162.274 82.6239 162.168 82.6483 162.072 82.6951C161.975 82.7419 161.891 82.81 161.826 82.894C161.692 83.151 161.621 83.4362 161.621 83.7255C161.621 84.0149 161.692 84.3 161.826 84.557C161.891 84.6393 161.975 84.7048 162.072 84.748C162.168 84.7912 162.273 84.8107 162.379 84.805L162.383 84.821Z" fill="#3F88C0"/>
<path d="M166.734 80.634H165.713V85.455H166.734V80.634Z" fill="#3F88C0"/>
<path d="M170.768 85.0169C170.619 85.177 170.441 85.3076 170.244 85.4019C170.06 85.487 169.86 85.5313 169.657 85.5319C168.853 85.5319 168.452 85.1026 168.452 84.2439V81.9609H169.475V84.1529C169.465 84.3145 169.5 84.4759 169.576 84.6189C169.619 84.6762 169.676 84.7214 169.742 84.75C169.808 84.7786 169.88 84.7896 169.952 84.7819C170.096 84.7817 170.237 84.7385 170.356 84.6579C170.493 84.5662 170.617 84.4566 170.724 84.3319V81.9609H171.754V85.4479H170.767L170.768 85.0169Z" fill="#3F88C0"/>
<path d="M175.203 85.4671C175.022 85.5025 174.837 85.5189 174.653 85.5161C174.443 85.527 174.232 85.4929 174.037 85.4161C173.898 85.3556 173.783 85.2525 173.708 85.1221C173.636 84.9796 173.596 84.8239 173.59 84.6651C173.59 84.4861 173.569 84.2871 173.569 84.0651V82.6951H173.118V81.9641H173.583V81.0901H174.592V81.9641H175.172V82.6881H174.592V84.2471C174.592 84.3379 174.599 84.4286 174.615 84.5181C174.627 84.5781 174.649 84.6357 174.681 84.6881C174.707 84.7238 174.742 84.7521 174.782 84.7701C174.826 84.7864 174.873 84.7942 174.92 84.7931C175.015 84.7928 175.11 84.7841 175.203 84.7671V85.4671Z" fill="#3F88C0"/>
<path d="M177.59 85.454H176.569V81.961H177.59V85.448V85.454ZM177.59 81.403H176.569V80.603H177.59V81.403Z" fill="#3F88C0"/>
<path d="M180.932 81.886C181.185 81.8819 181.437 81.9229 181.676 82.007C181.89 82.0777 182.084 82.1973 182.242 82.356C182.406 82.5203 182.529 82.7203 182.601 82.94C182.772 83.4479 182.772 83.9971 182.601 84.505C182.527 84.721 182.405 84.9174 182.242 85.079C182.081 85.2336 181.888 85.3517 181.676 85.425C181.193 85.5859 180.671 85.5859 180.188 85.425C179.971 85.3531 179.774 85.2327 179.612 85.0731C179.45 84.9136 179.327 84.7192 179.253 84.505C179.082 83.9968 179.082 83.4472 179.253 82.939C179.33 82.7241 179.455 82.529 179.618 82.368C179.778 82.2093 179.973 82.0897 180.188 82.019C180.427 81.9349 180.679 81.8939 180.932 81.898V81.886ZM180.932 84.821C181.039 84.8249 181.145 84.8029 181.242 84.7569C181.338 84.7108 181.422 84.6423 181.485 84.557C181.619 84.3 181.689 84.0149 181.689 83.7255C181.689 83.4362 181.619 83.151 181.485 82.894C181.419 82.8108 181.335 82.7436 181.239 82.6973C181.142 82.6511 181.037 82.627 180.93 82.627C180.823 82.627 180.718 82.6511 180.621 82.6973C180.525 82.7436 180.441 82.8108 180.375 82.894C180.243 83.1517 180.174 83.4366 180.174 83.7255C180.174 84.0145 180.243 84.2994 180.375 84.557C180.44 84.6398 180.525 84.7055 180.622 84.7487C180.719 84.7919 180.825 84.8112 180.931 84.805L180.932 84.821Z" fill="#3F88C0"/>
<path d="M185.251 82.405C185.397 82.2433 185.574 82.1115 185.771 82.017C185.951 81.9308 186.148 81.8863 186.347 81.887C187.155 81.887 187.559 82.314 187.559 83.175V85.458H186.538V83.266C186.548 83.1022 186.51 82.9392 186.429 82.796C186.387 82.7385 186.331 82.6932 186.265 82.6646C186.2 82.6359 186.128 82.625 186.057 82.633C185.913 82.6335 185.772 82.6767 185.653 82.757C185.516 82.849 185.392 82.9587 185.284 83.083V85.457H184.264V81.957H185.252L185.251 82.405Z" fill="#3F88C0"/>
<path d="M190.652 85.5489C190.417 85.553 190.181 85.5288 189.951 85.4769C189.775 85.4399 189.608 85.3689 189.46 85.2679C189.33 85.1796 189.226 85.0593 189.157 84.9189C189.084 84.7617 189.043 84.5919 189.035 84.4189H189.967C189.966 84.4952 189.981 84.5708 190.011 84.6411C190.041 84.7113 190.086 84.7746 190.142 84.8269C190.288 84.9303 190.467 84.9789 190.646 84.9639C190.804 84.9737 190.962 84.9361 191.098 84.8559C191.15 84.8198 191.192 84.7707 191.22 84.7136C191.248 84.6564 191.26 84.5931 191.255 84.5299C191.257 84.4699 191.241 84.4107 191.209 84.3599C191.17 84.3097 191.119 84.2703 191.06 84.2459C190.979 84.2071 190.894 84.1766 190.807 84.1549L190.438 84.0599C190.264 84.0209 190.109 83.9719 189.942 83.9229C189.794 83.8795 189.653 83.8149 189.524 83.7309C189.405 83.6529 189.306 83.5476 189.237 83.4239C189.164 83.2762 189.129 83.1125 189.136 82.9479C189.135 82.8007 189.17 82.6554 189.237 82.5239C189.304 82.3938 189.403 82.2819 189.524 82.1979C189.663 82.0958 189.821 82.0205 189.988 81.9759C190.194 81.9178 190.407 81.8902 190.62 81.8939C191.011 81.8666 191.402 81.9576 191.74 82.1549C191.86 82.242 191.957 82.3566 192.023 82.4889C192.089 82.6213 192.122 82.7674 192.118 82.9149H191.229C191.228 82.8514 191.213 82.789 191.184 82.7324C191.155 82.6759 191.113 82.6268 191.061 82.5889C190.933 82.5067 190.783 82.4668 190.63 82.4749C190.493 82.4697 190.357 82.5045 190.239 82.5749C190.19 82.6024 190.151 82.6425 190.124 82.6909C190.097 82.7392 190.085 82.7939 190.087 82.8489C190.085 82.9027 190.095 82.9563 190.116 83.0059C190.144 83.052 190.184 83.0895 190.232 83.1139C190.305 83.154 190.384 83.1846 190.466 83.2049C190.567 83.2379 190.703 83.2699 190.87 83.3049C191.091 83.3569 191.284 83.4049 191.452 83.4649C191.603 83.509 191.745 83.5765 191.874 83.6649C191.981 83.7435 192.068 83.8464 192.127 83.9649C192.191 84.1052 192.222 84.2581 192.216 84.4119C192.218 84.5666 192.186 84.7199 192.124 84.8619C192.061 85.0015 191.964 85.1237 191.842 85.2179C191.696 85.3263 191.53 85.4061 191.354 85.4529C191.126 85.5167 190.89 85.549 190.652 85.5489Z" fill="#3F88C0"/>
<path d="M73.2363 85.5461C72.9139 85.5495 72.5936 85.4942 72.2913 85.3831C72.0096 85.2774 71.7578 85.1058 71.5574 84.8831C71.3455 84.6532 71.187 84.3801 71.093 84.0831C70.9904 83.7504 70.9413 83.4038 70.9476 83.0561C70.9075 82.3932 71.1242 81.7402 71.5533 81.2301C71.7572 81.0066 72.011 80.8334 72.2944 80.7241C72.5939 80.6103 72.9125 80.554 73.2333 80.5581C73.4871 80.5561 73.74 80.5898 73.9844 80.6581C74.2081 80.7206 74.4187 80.8222 74.6063 80.9581C74.8197 81.1066 74.993 81.3047 75.1111 81.5351C75.2224 81.766 75.2924 82.0144 75.318 82.2691H74.2812C74.2565 82.03 74.1384 81.81 73.9521 81.6561C73.7454 81.4986 73.4886 81.4199 73.2282 81.4341C73.0539 81.4318 72.8813 81.4687 72.7234 81.5421C72.5696 81.6187 72.4364 81.7304 72.3347 81.8681C72.2213 82.0223 72.1375 82.1958 72.0874 82.3801C71.9731 82.8331 71.9731 83.307 72.0874 83.7601C72.1354 83.9443 72.218 84.118 72.3307 84.2721C72.4284 84.4106 72.5596 84.5227 72.7123 84.5981C72.8702 84.6713 73.0428 84.7082 73.2171 84.7061C73.4791 84.7178 73.7365 84.6355 73.942 84.4741C74.1287 84.3041 74.2459 84.072 74.2711 83.8221H75.315C75.2887 84.0808 75.2187 84.3333 75.1081 84.5691C74.9943 84.7703 74.8408 84.9468 74.6568 85.0881C74.4698 85.2386 74.2537 85.3495 74.0217 85.4141C73.768 85.4963 73.5033 85.5408 73.2363 85.5461V85.5461Z" stroke="#3F88C0" stroke-width="0.22" stroke-miterlimit="22.93"/>
<path d="M78.5338 81.886C78.7882 81.8819 79.0412 81.9228 79.2809 82.007C79.4944 82.0785 79.6883 82.1979 79.8473 82.356C80.0084 82.5174 80.1309 82.7125 80.2057 82.927C80.3726 83.4359 80.3726 83.9841 80.2057 84.493C80.1309 84.7084 80.0084 84.9045 79.8473 85.067C79.6855 85.221 79.4924 85.3389 79.2809 85.413C78.7971 85.5738 78.2736 85.5738 77.7898 85.413C77.5739 85.3402 77.3777 85.2195 77.2162 85.06C77.0547 84.9006 76.9321 84.7066 76.8579 84.493C76.6867 83.9848 76.6867 83.4352 76.8579 82.927C76.9352 82.7121 77.0601 82.517 77.2234 82.356C77.3819 82.1973 77.576 82.0777 77.7898 82.007C78.0286 81.9231 78.2805 81.8822 78.5338 81.886V81.886ZM78.5338 84.821C78.6413 84.8254 78.7482 84.8036 78.8451 84.7576C78.9421 84.7115 79.0262 84.6427 79.0901 84.557C79.2243 84.3 79.2944 84.0149 79.2944 83.7255C79.2944 83.4362 79.2243 83.151 79.0901 82.894C79.024 82.8108 78.9397 82.7436 78.8435 82.6973C78.7473 82.6511 78.6418 82.627 78.5348 82.627C78.4279 82.627 78.3224 82.6511 78.2262 82.6973C78.13 82.7436 78.0457 82.8108 77.9796 82.894C77.8454 83.151 77.7754 83.4362 77.7754 83.7255C77.7754 84.0149 77.8454 84.3 77.9796 84.557C78.0449 84.6393 78.1293 84.7048 78.2256 84.748C78.3219 84.7912 78.4273 84.8107 78.5328 84.805L78.5338 84.821Z" stroke="#3F88C0" stroke-width="0.22" stroke-miterlimit="22.93"/>
<path d="M87.1997 85.4549H86.1901V83.2669C86.2028 83.0978 86.1679 82.9285 86.0892 82.7779C86.0524 82.7268 86.0025 82.6865 85.9446 82.6611C85.8867 82.6358 85.8229 82.6264 85.76 82.6339C85.6295 82.6351 85.5023 82.6748 85.3946 82.7479C85.2584 82.8371 85.1375 82.9471 85.0362 83.0739V85.4479H84.0266V83.2659C84.0388 83.0974 84.0057 82.9286 83.9307 82.7769C83.8954 82.7283 83.848 82.6896 83.7932 82.6643C83.7384 82.6391 83.678 82.6283 83.6177 82.6329C83.4864 82.6349 83.3584 82.6745 83.2492 82.7469C83.1114 82.8329 82.991 82.9434 82.8939 83.0729V85.4469H81.8691V81.9599H82.8565V82.3969C82.9822 82.2382 83.142 82.1093 83.3244 82.0195C83.5067 81.9298 83.7069 81.8814 83.9105 81.8779C84.1398 81.8651 84.3681 81.9171 84.5688 82.0279C84.7439 82.1356 84.8756 82.3004 84.9413 82.4939C85.0901 82.3147 85.2683 82.1616 85.4683 82.0409C85.6491 81.9325 85.8567 81.8761 86.068 81.8779C86.8322 81.8779 87.2138 82.3049 87.2138 83.1659L87.1997 85.4549Z" stroke="#3F88C0" stroke-width="0.22" stroke-miterlimit="22.93"/>
<path d="M94.2407 85.454H93.22V83.266C93.2327 83.0968 93.1978 82.9276 93.1191 82.777C93.0818 82.7264 93.0318 82.6865 92.974 82.6612C92.9162 82.636 92.8527 82.6262 92.79 82.633C92.6594 82.6343 92.5322 82.674 92.4245 82.747C92.289 82.837 92.1682 82.9469 92.0661 83.073V85.447H91.0615V83.265C91.0738 83.0964 91.0407 82.9277 90.9656 82.776C90.9305 82.7272 90.8832 82.6882 90.8284 82.663C90.7735 82.6378 90.713 82.6271 90.6527 82.632C90.5213 82.634 90.3934 82.6736 90.2842 82.746C90.147 82.8327 90.0266 82.9431 89.9288 83.072V85.446H88.9102V81.959H89.8975V82.396C90.0238 82.2372 90.1842 82.1083 90.367 82.0186C90.5498 81.9288 90.7505 81.8804 90.9545 81.877C91.1838 81.8649 91.4119 81.9168 91.6128 82.027C91.7861 82.1366 91.9173 82.3007 91.9853 82.493C92.1339 82.3147 92.3109 82.1616 92.5093 82.04C92.6902 81.9319 92.8977 81.8755 93.109 81.877C93.8732 81.877 94.2548 82.304 94.2548 83.165L94.2407 85.454Z" stroke="#3F88C0" stroke-width="0.22" stroke-miterlimit="22.93"/>
<path d="M96.9734 85.454H95.9497V81.961H96.9734V85.448V85.454ZM96.9734 81.403H95.9497V80.603H96.9734V81.403Z" stroke="#3F88C0" stroke-width="0.22" stroke-miterlimit="22.93"/>
<path d="M100.421 85.4671C100.24 85.5025 100.056 85.5189 99.8709 85.5161C99.6608 85.527 99.4507 85.4929 99.2551 85.4161C99.1164 85.3556 99.001 85.2525 98.9259 85.1221C98.8547 84.9796 98.8144 84.8239 98.8078 84.6651C98.8078 84.4861 98.7876 84.2871 98.7876 84.0651V82.6951H98.3232V81.9641H98.7876V81.0901H99.7972V81.9641H100.377V82.6881H99.7972V84.2471C99.7967 84.3379 99.8044 84.4286 99.8204 84.5181C99.8321 84.5781 99.8544 84.6357 99.8861 84.6881C99.9118 84.7238 99.9466 84.7521 99.987 84.7701C100.031 84.7864 100.078 84.7942 100.125 84.7931C100.22 84.7928 100.315 84.7841 100.408 84.7671L100.421 85.4671Z" stroke="#3F88C0" stroke-width="0.22" stroke-miterlimit="22.93"/>
<path d="M103.5 85.4671C103.319 85.5026 103.135 85.519 102.95 85.5161C102.741 85.5267 102.532 85.4926 102.337 85.4161C102.199 85.3556 102.083 85.2525 102.008 85.1221C101.935 84.9799 101.894 84.8242 101.886 84.6651C101.886 84.4861 101.866 84.2871 101.866 84.0651V82.6951H101.401V81.9641H101.866V81.0901H102.875V81.9641H103.452V82.6881H102.875V84.2471C102.873 84.338 102.881 84.4289 102.899 84.5181C102.909 84.5785 102.931 84.6363 102.964 84.6881C102.99 84.7241 103.024 84.7525 103.065 84.7701C103.109 84.7862 103.156 84.794 103.203 84.7931C103.298 84.7928 103.393 84.7841 103.486 84.7671L103.5 85.4671Z" stroke="#3F88C0" stroke-width="0.22" stroke-miterlimit="22.93"/>
<path d="M106.516 85.5489C106.248 85.5535 105.982 85.5105 105.729 85.4219C105.51 85.3469 105.311 85.2243 105.146 85.0629C104.985 84.9032 104.864 84.7088 104.791 84.4949C104.706 84.2495 104.664 83.9913 104.669 83.7319C104.665 83.4702 104.706 83.2097 104.791 82.9619C104.866 82.7474 104.988 82.5516 105.146 82.3879C105.306 82.2277 105.5 82.1042 105.713 82.0259C105.957 81.9405 106.214 81.8985 106.473 81.9019C106.726 81.8977 106.978 81.9387 107.217 82.0229C107.428 82.0946 107.619 82.213 107.776 82.3689C107.934 82.5283 108.054 82.7197 108.129 82.9299C108.215 83.1773 108.258 83.438 108.254 83.6999V83.9189H105.715C105.713 84.0704 105.735 84.2211 105.78 84.3659C105.814 84.4787 105.871 84.5833 105.948 84.6729C106.015 84.7499 106.1 84.8102 106.195 84.8489C106.301 84.8863 106.412 84.9039 106.524 84.9009C106.688 84.9075 106.851 84.8668 106.992 84.7839C107.122 84.6928 107.211 84.5545 107.239 84.3989H108.194C108.164 84.5736 108.095 84.7395 107.992 84.8849C107.895 85.0234 107.772 85.1419 107.63 85.2339C107.478 85.3326 107.31 85.4053 107.133 85.4489C106.933 85.4999 106.727 85.5251 106.52 85.5239L106.516 85.5489ZM107.24 83.3539C107.237 83.118 107.158 82.8893 107.013 82.7019C106.944 82.6293 106.86 82.5725 106.767 82.5354C106.674 82.4982 106.573 82.4817 106.473 82.4869C106.374 82.4839 106.275 82.5032 106.184 82.5433C106.093 82.5835 106.013 82.6436 105.949 82.7189C105.8 82.9041 105.72 83.1342 105.722 83.3709L107.24 83.3539Z" stroke="#3F88C0" stroke-width="0.22" stroke-miterlimit="22.93"/>
<path d="M112.015 82.891C111.919 82.8029 111.807 82.7322 111.686 82.682C111.567 82.634 111.439 82.6096 111.31 82.61C111.207 82.6067 111.105 82.631 111.014 82.6805C110.924 82.7299 110.849 82.8027 110.797 82.891C110.664 83.1525 110.604 83.444 110.622 83.736C110.622 84.45 110.836 84.806 111.28 84.806C111.42 84.8065 111.557 84.7643 111.672 84.685C111.799 84.5885 111.91 84.4732 112.001 84.343V82.892L112.015 82.891ZM112.051 85.024C111.918 85.1798 111.755 85.3074 111.571 85.399C111.395 85.488 111.199 85.534 111.002 85.533C110.793 85.5357 110.586 85.4934 110.396 85.409C110.222 85.3288 110.071 85.208 109.955 85.057C109.827 84.8875 109.736 84.6943 109.685 84.489C109.62 84.2433 109.589 83.99 109.593 83.736C109.589 83.4802 109.623 83.2251 109.694 82.979C109.752 82.7674 109.852 82.569 109.987 82.395C110.111 82.2359 110.271 82.1075 110.454 82.02C110.647 81.9288 110.859 81.8829 111.073 81.886C111.254 81.8821 111.435 81.9098 111.606 81.968C111.762 82.0217 111.903 82.11 112.018 82.226V80.634H113.036V85.454H112.048L112.051 85.024Z" stroke="#3F88C0" stroke-width="0.22" stroke-miterlimit="22.93"/>
<path d="M121.522 81.515H120.086V85.455H119.058V81.515H117.623V80.634H121.522V81.515Z" stroke="#3F88C0" stroke-width="0.22" stroke-miterlimit="22.93"/>
<path d="M124.556 81.886C124.811 81.8821 125.064 81.9231 125.303 82.007C125.517 82.0784 125.711 82.1979 125.87 82.356C126.033 82.5211 126.155 82.7209 126.228 82.94C126.395 83.4489 126.395 83.9971 126.228 84.506C126.153 84.7214 126.031 84.9175 125.87 85.08C125.708 85.2339 125.515 85.3519 125.303 85.426C124.82 85.5867 124.296 85.5867 123.812 85.426C123.6 85.3526 123.407 85.2345 123.246 85.08C123.081 84.9188 122.956 84.7225 122.88 84.506C122.709 83.9978 122.709 83.4482 122.88 82.94C122.956 82.7244 123.082 82.5291 123.246 82.369C123.404 82.2102 123.598 82.0907 123.812 82.02C124.051 81.9361 124.303 81.8951 124.556 81.899V81.886ZM124.556 84.821C124.663 84.8248 124.77 84.8028 124.866 84.7568C124.962 84.7108 125.046 84.6422 125.11 84.557C125.246 84.3006 125.317 84.0152 125.317 83.7255C125.317 83.4358 125.246 83.1504 125.11 82.894C125.044 82.8099 124.96 82.7419 124.864 82.695C124.767 82.6482 124.662 82.6239 124.554 82.6239C124.447 82.6239 124.341 82.6482 124.245 82.695C124.149 82.7419 124.065 82.8099 123.999 82.894C123.865 83.151 123.795 83.4362 123.795 83.7255C123.795 84.0149 123.865 84.3 123.999 84.557C124.064 84.6393 124.149 84.7048 124.245 84.748C124.341 84.7911 124.447 84.8107 124.552 84.805L124.556 84.821Z" stroke="#3F88C0" stroke-width="0.22" stroke-miterlimit="22.93"/>
<path d="M132.756 81.968L131.732 85.455H130.745L130.119 83.055L129.487 85.455H128.522L127.491 81.968H128.479L129.029 84.46L129.687 81.968H130.586L131.225 84.46L131.807 81.968H132.756Z" stroke="#3F88C0" stroke-width="0.22" stroke-miterlimit="22.93"/>
<path d="M136.289 83.8731H135.96C135.693 83.8579 135.426 83.9023 135.179 84.0031C135.096 84.0417 135.026 84.1044 134.98 84.183C134.933 84.2616 134.912 84.3523 134.919 84.4431C134.914 84.5109 134.926 84.5789 134.954 84.6409C134.982 84.7029 135.026 84.7569 135.08 84.7981C135.203 84.8776 135.349 84.9165 135.495 84.9091C135.652 84.9094 135.807 84.8752 135.95 84.8091C136.077 84.7496 136.189 84.6628 136.279 84.5551V83.8701L136.289 83.8731ZM136.312 85.1421C136.158 85.2758 135.979 85.3778 135.785 85.4421C135.572 85.5079 135.35 85.5399 135.127 85.5371C134.96 85.5383 134.794 85.5164 134.633 85.4721C134.491 85.4355 134.359 85.3702 134.244 85.2801C134.133 85.1938 134.045 85.0819 133.988 84.9541C133.923 84.815 133.892 84.6631 133.896 84.5101C133.886 84.3242 133.929 84.1393 134.021 83.977C134.113 83.8148 134.25 83.6819 134.416 83.5941C134.911 83.3677 135.456 83.2666 136 83.3001H136.293V83.1211C136.297 83.0658 136.297 83.0103 136.293 82.9551C136.291 82.8849 136.275 82.8157 136.245 82.7518C136.216 82.6879 136.173 82.6306 136.121 82.5831C135.986 82.4892 135.821 82.4454 135.657 82.4591C135.482 82.4468 135.307 82.4914 135.16 82.5861C135.104 82.6295 135.059 82.6858 135.03 82.7501C135.001 82.8144 134.988 82.8847 134.992 82.9551H134.061C134.113 82.2417 134.662 81.8841 135.707 81.8821H136.089C136.194 81.8896 136.299 81.905 136.402 81.9281C136.493 81.9463 136.582 81.9724 136.668 82.0061C136.753 82.0409 136.834 82.0824 136.912 82.1301C136.982 82.1766 137.046 82.2313 137.102 82.2931C137.158 82.3589 137.204 82.4327 137.238 82.5121C137.278 82.6047 137.306 82.7022 137.321 82.8021C137.339 82.9286 137.347 83.0563 137.347 83.1841V85.4371H136.359L136.312 85.1421Z" stroke="#3F88C0" stroke-width="0.22" stroke-miterlimit="22.93"/>
<path d="M141.293 82.783C141.232 82.768 141.171 82.7569 141.108 82.75H140.874C140.719 82.75 140.566 82.7842 140.426 82.85C140.275 82.928 140.144 83.0396 140.044 83.176V85.459H139.021V81.959H140.009V82.52C140.128 82.3259 140.289 82.16 140.479 82.034C140.64 81.9325 140.826 81.8781 141.016 81.877H141.155C141.201 81.8766 141.247 81.8844 141.29 81.9L141.293 82.783Z" stroke="#3F88C0" stroke-width="0.22" stroke-miterlimit="22.93"/>
<path d="M144.853 82.891C144.756 82.803 144.645 82.7322 144.524 82.682C144.405 82.634 144.277 82.6096 144.148 82.61C144.045 82.6067 143.943 82.631 143.852 82.6805C143.762 82.7299 143.687 82.8027 143.634 82.891C143.502 83.1525 143.442 83.444 143.46 83.736C143.46 84.45 143.674 84.806 144.118 84.806C144.258 84.8065 144.395 84.7643 144.51 84.685C144.637 84.5885 144.748 84.4732 144.839 84.343V82.892L144.853 82.891ZM144.889 85.024C144.756 85.1799 144.593 85.3074 144.409 85.399C144.232 85.488 144.037 85.534 143.839 85.533C143.631 85.536 143.424 85.4937 143.234 85.409C143.06 85.3288 142.909 85.208 142.792 85.057C142.665 84.8875 142.573 84.6943 142.523 84.489C142.458 84.2433 142.427 83.99 142.431 83.736C142.427 83.4802 142.461 83.2251 142.532 82.979C142.59 82.7674 142.69 82.569 142.825 82.395C142.948 82.2362 143.107 82.1079 143.289 82.02C143.483 81.9291 143.696 81.8833 143.911 81.886C144.092 81.8821 144.273 81.9098 144.444 81.968C144.599 82.0217 144.74 82.11 144.856 82.226V80.634H145.87V85.454H144.882L144.889 85.024Z" stroke="#3F88C0" stroke-width="0.22" stroke-miterlimit="22.93"/>
<path d="M148.973 85.5489C148.737 85.553 148.501 85.5288 148.271 85.4769C148.095 85.4399 147.929 85.3689 147.781 85.2679C147.651 85.1796 147.546 85.0593 147.478 84.9189C147.401 84.7628 147.36 84.5923 147.355 84.4189H148.287C148.287 84.4949 148.301 84.5702 148.331 84.6404C148.36 84.7105 148.404 84.774 148.459 84.8269C148.607 84.9304 148.788 84.9789 148.969 84.9639C149.127 84.9737 149.284 84.9361 149.42 84.8559C149.473 84.8199 149.515 84.7709 149.543 84.7137C149.571 84.6566 149.583 84.5932 149.579 84.5299C149.581 84.4699 149.564 84.4107 149.532 84.3599C149.493 84.3105 149.442 84.2713 149.384 84.2459C149.303 84.2071 149.218 84.1766 149.13 84.1549L148.762 84.0599C148.587 84.0209 148.433 83.9719 148.265 83.9229C148.117 83.8795 147.976 83.8148 147.847 83.7309C147.728 83.6529 147.63 83.5476 147.56 83.4239C147.487 83.2762 147.452 83.1125 147.459 82.9479C147.459 82.8007 147.493 82.6554 147.56 82.5239C147.626 82.3941 147.724 82.2822 147.843 82.1979C147.984 82.0964 148.142 82.0212 148.311 81.9759C148.516 81.9176 148.729 81.89 148.943 81.8939C149.334 81.8666 149.724 81.9576 150.062 82.1549C150.182 82.2421 150.28 82.3567 150.345 82.489C150.411 82.6213 150.444 82.7674 150.441 82.9149H149.551C149.551 82.8514 149.535 82.789 149.506 82.7324C149.477 82.6759 149.435 82.6268 149.384 82.5889C149.255 82.5062 149.102 82.4662 148.949 82.4749C148.812 82.4703 148.677 82.5051 148.56 82.5749C148.512 82.6024 148.472 82.6425 148.445 82.6909C148.419 82.7392 148.406 82.7939 148.408 82.8489C148.407 82.9027 148.417 82.9563 148.438 83.0059C148.465 83.0512 148.503 83.0885 148.55 83.1139C148.625 83.1534 148.705 83.184 148.787 83.2049C148.888 83.2379 149.024 83.2699 149.191 83.3049C149.412 83.3569 149.606 83.4049 149.773 83.4649C149.924 83.5091 150.066 83.5766 150.194 83.6649C150.302 83.7435 150.389 83.8464 150.448 83.9649C150.511 84.1054 150.54 84.2584 150.534 84.4119C150.536 84.5664 150.506 84.7197 150.445 84.8619C150.38 85.0006 150.282 85.1222 150.161 85.2169C150.015 85.3253 149.85 85.4051 149.673 85.4519C149.446 85.5159 149.21 85.5485 148.973 85.5489V85.5489Z" stroke="#3F88C0" stroke-width="0.22" stroke-miterlimit="22.93"/>
<path d="M157.182 85.5489C156.631 85.5804 156.084 85.4341 155.624 85.1319C155.433 84.9803 155.279 84.7877 155.174 84.5685C155.069 84.3494 155.016 84.1094 155.018 83.8669H156.004C156.01 83.9923 156.043 84.1151 156.099 84.2274C156.156 84.3397 156.236 84.439 156.334 84.5189C156.57 84.6733 156.851 84.7477 157.134 84.7309C157.389 84.7439 157.642 84.6886 157.868 84.5709C157.952 84.5258 158.021 84.4587 158.069 84.377C158.116 84.2953 158.14 84.2022 158.138 84.1079C158.14 84.028 158.117 83.9494 158.072 83.8829C158.019 83.8131 157.95 83.7571 157.87 83.7199C157.765 83.6667 157.655 83.6232 157.541 83.5899C157.406 83.5509 157.248 83.5079 157.067 83.4659L156.882 83.4139C156.655 83.3549 156.434 83.2929 156.224 83.2349C156.032 83.181 155.849 83.0999 155.68 82.9939C155.526 82.8967 155.398 82.7635 155.308 82.6059C155.208 82.4162 155.159 82.2039 155.167 81.9899C155.161 81.7692 155.215 81.5509 155.321 81.3569C155.423 81.1806 155.565 81.0301 155.736 80.9169C155.92 80.7947 156.126 80.7063 156.342 80.6559C156.58 80.5986 156.824 80.57 157.07 80.5709C157.34 80.5667 157.609 80.6004 157.87 80.6709C158.094 80.7314 158.304 80.8331 158.489 80.9709C158.659 81.0967 158.797 81.2596 158.893 81.4469C158.991 81.6441 159.045 81.86 159.051 82.0799H158.07C158.063 81.9782 158.034 81.8792 157.984 81.7901C157.934 81.701 157.864 81.6241 157.78 81.5649C157.577 81.454 157.349 81.3937 157.117 81.3892C156.884 81.3846 156.655 81.436 156.447 81.5389C156.376 81.5815 156.317 81.642 156.277 81.7141C156.237 81.7863 156.217 81.8676 156.22 81.9499C156.219 82.0238 156.239 82.0963 156.279 82.1589C156.326 82.2227 156.387 82.275 156.457 82.3119C156.562 82.3623 156.673 82.4028 156.786 82.4329C156.911 82.4696 157.063 82.5086 157.24 82.5499L157.751 82.6669C157.909 82.7031 158.065 82.7478 158.218 82.8009C158.358 82.848 158.494 82.908 158.622 82.9799C158.739 83.0454 158.844 83.1302 158.932 83.2309C159.021 83.3347 159.09 83.4541 159.134 83.5829C159.183 83.7368 159.206 83.8976 159.203 84.0589C159.207 84.279 159.159 84.4971 159.062 84.6949C158.967 84.8805 158.829 85.0405 158.658 85.1609C158.466 85.2965 158.251 85.3949 158.023 85.4509C157.748 85.5205 157.465 85.5535 157.182 85.5489V85.5489Z" stroke="#3F88C0" stroke-width="0.22" stroke-miterlimit="22.93"/>
<path d="M162.383 81.886C162.637 81.8819 162.89 81.9228 163.13 82.007C163.344 82.0785 163.537 82.1979 163.696 82.356C163.858 82.5174 163.98 82.7125 164.055 82.927C164.222 83.4359 164.222 83.9841 164.055 84.493C163.98 84.7084 163.858 84.9045 163.696 85.067C163.535 85.221 163.342 85.3389 163.13 85.413C162.646 85.5738 162.123 85.5738 161.639 85.413C161.427 85.3397 161.234 85.2216 161.073 85.067C160.908 84.9059 160.783 84.7095 160.707 84.493C160.536 83.9848 160.536 83.4352 160.707 82.927C160.783 82.7115 160.908 82.5161 161.073 82.356C161.231 82.1973 161.425 82.0777 161.639 82.007C161.878 81.9231 162.13 81.8821 162.383 81.886V81.886ZM162.383 84.821C162.49 84.8249 162.596 84.8029 162.693 84.7569C162.789 84.7108 162.873 84.6423 162.936 84.557C163.072 84.3006 163.143 84.0152 163.143 83.7255C163.143 83.4358 163.072 83.1505 162.936 82.894C162.871 82.81 162.787 82.7419 162.69 82.6951C162.594 82.6483 162.488 82.6239 162.381 82.6239C162.274 82.6239 162.168 82.6483 162.072 82.6951C161.975 82.7419 161.891 82.81 161.826 82.894C161.692 83.151 161.621 83.4362 161.621 83.7255C161.621 84.0149 161.692 84.3 161.826 84.557C161.891 84.6393 161.975 84.7048 162.072 84.748C162.168 84.7912 162.273 84.8107 162.379 84.805L162.383 84.821Z" stroke="#3F88C0" stroke-width="0.22" stroke-miterlimit="22.93"/>
<path d="M166.734 80.634H165.713V85.455H166.734V80.634Z" stroke="#3F88C0" stroke-width="0.22" stroke-miterlimit="22.93"/>
<path d="M170.768 85.0169C170.619 85.177 170.441 85.3076 170.244 85.4019C170.06 85.487 169.86 85.5313 169.657 85.5319C168.853 85.5319 168.452 85.1026 168.452 84.2439V81.9609H169.475V84.1529C169.465 84.3145 169.5 84.4759 169.576 84.6189C169.619 84.6762 169.676 84.7214 169.742 84.75C169.808 84.7786 169.88 84.7896 169.952 84.7819C170.096 84.7817 170.237 84.7385 170.356 84.6579C170.493 84.5662 170.617 84.4566 170.724 84.3319V81.9609H171.754V85.4479H170.767L170.768 85.0169Z" stroke="#3F88C0" stroke-width="0.22" stroke-miterlimit="22.93"/>
<path d="M175.203 85.4671C175.022 85.5025 174.837 85.5189 174.653 85.5161C174.443 85.527 174.232 85.4929 174.037 85.4161C173.898 85.3556 173.783 85.2525 173.708 85.1221C173.636 84.9796 173.596 84.8239 173.59 84.6651C173.59 84.4861 173.569 84.2871 173.569 84.0651V82.6951H173.118V81.9641H173.583V81.0901H174.592V81.9641H175.172V82.6881H174.592V84.2471C174.592 84.3379 174.599 84.4286 174.615 84.5181C174.627 84.5781 174.649 84.6357 174.681 84.6881C174.707 84.7238 174.742 84.7521 174.782 84.7701C174.826 84.7864 174.873 84.7942 174.92 84.7931C175.015 84.7928 175.11 84.7841 175.203 84.7671V85.4671Z" stroke="#3F88C0" stroke-width="0.22" stroke-miterlimit="22.93"/>
<path d="M177.59 85.454H176.569V81.961H177.59V85.448V85.454ZM177.59 81.403H176.569V80.603H177.59V81.403Z" stroke="#3F88C0" stroke-width="0.22" stroke-miterlimit="22.93"/>
<path d="M180.932 81.886C181.185 81.8819 181.437 81.9229 181.676 82.007C181.89 82.0777 182.084 82.1973 182.242 82.356C182.406 82.5203 182.529 82.7203 182.601 82.94C182.772 83.4479 182.772 83.9971 182.601 84.505C182.527 84.721 182.405 84.9174 182.242 85.079C182.081 85.2336 181.888 85.3517 181.676 85.425C181.193 85.5859 180.671 85.5859 180.188 85.425C179.971 85.3531 179.774 85.2327 179.612 85.0731C179.45 84.9136 179.327 84.7192 179.253 84.505C179.082 83.9968 179.082 83.4472 179.253 82.939C179.33 82.7241 179.455 82.529 179.618 82.368C179.778 82.2093 179.973 82.0897 180.188 82.019C180.427 81.9349 180.679 81.8939 180.932 81.898V81.886ZM180.932 84.821C181.039 84.8249 181.145 84.8029 181.242 84.7569C181.338 84.7108 181.422 84.6423 181.485 84.557C181.619 84.3 181.689 84.0149 181.689 83.7255C181.689 83.4362 181.619 83.151 181.485 82.894C181.419 82.8108 181.335 82.7436 181.239 82.6973C181.142 82.6511 181.037 82.627 180.93 82.627C180.823 82.627 180.718 82.6511 180.621 82.6973C180.525 82.7436 180.441 82.8108 180.375 82.894C180.243 83.1517 180.174 83.4366 180.174 83.7255C180.174 84.0145 180.243 84.2994 180.375 84.557C180.44 84.6398 180.525 84.7055 180.622 84.7487C180.719 84.7919 180.825 84.8112 180.931 84.805L180.932 84.821Z" stroke="#3F88C0" stroke-width="0.22" stroke-miterlimit="22.93"/>
<path d="M185.251 82.405C185.397 82.2433 185.574 82.1115 185.771 82.017C185.951 81.9308 186.148 81.8863 186.347 81.887C187.155 81.887 187.559 82.314 187.559 83.175V85.458H186.538V83.266C186.548 83.1022 186.51 82.9392 186.429 82.796C186.387 82.7385 186.331 82.6932 186.265 82.6646C186.2 82.6359 186.128 82.625 186.057 82.633C185.913 82.6335 185.772 82.6767 185.653 82.757C185.516 82.849 185.392 82.9587 185.284 83.083V85.457H184.264V81.957H185.252L185.251 82.405Z" stroke="#3F88C0" stroke-width="0.22" stroke-miterlimit="22.93"/>
<path d="M190.652 85.5489C190.417 85.553 190.181 85.5288 189.951 85.4769C189.775 85.4399 189.608 85.3689 189.46 85.2679C189.33 85.1796 189.226 85.0593 189.157 84.9189C189.084 84.7617 189.043 84.5919 189.035 84.4189H189.967C189.966 84.4952 189.981 84.5708 190.011 84.6411C190.041 84.7113 190.086 84.7746 190.142 84.8269C190.288 84.9303 190.467 84.9789 190.646 84.9639C190.804 84.9737 190.962 84.9361 191.098 84.8559C191.15 84.8198 191.192 84.7707 191.22 84.7136C191.248 84.6564 191.26 84.5931 191.255 84.5299C191.257 84.4699 191.241 84.4107 191.209 84.3599C191.17 84.3097 191.119 84.2703 191.06 84.2459C190.979 84.2071 190.894 84.1766 190.807 84.1549L190.438 84.0599C190.264 84.0209 190.109 83.9719 189.942 83.9229C189.794 83.8795 189.653 83.8149 189.524 83.7309C189.405 83.6529 189.306 83.5476 189.237 83.4239C189.164 83.2762 189.129 83.1125 189.136 82.9479C189.135 82.8007 189.17 82.6554 189.237 82.5239C189.304 82.3938 189.403 82.2819 189.524 82.1979C189.663 82.0958 189.821 82.0205 189.988 81.9759C190.194 81.9178 190.407 81.8902 190.62 81.8939C191.011 81.8666 191.402 81.9576 191.74 82.1549C191.86 82.242 191.957 82.3566 192.023 82.4889C192.089 82.6213 192.122 82.7674 192.118 82.9149H191.229C191.228 82.8514 191.213 82.789 191.184 82.7324C191.155 82.6759 191.113 82.6268 191.061 82.5889C190.933 82.5067 190.783 82.4668 190.63 82.4749C190.493 82.4697 190.357 82.5045 190.239 82.5749C190.19 82.6024 190.151 82.6425 190.124 82.6909C190.097 82.7392 190.085 82.7939 190.087 82.8489C190.085 82.9027 190.095 82.9563 190.116 83.0059C190.144 83.052 190.184 83.0895 190.232 83.1139C190.305 83.154 190.384 83.1846 190.466 83.2049C190.567 83.2379 190.703 83.2699 190.87 83.3049C191.091 83.3569 191.284 83.4049 191.452 83.4649C191.603 83.509 191.745 83.5765 191.874 83.6649C191.981 83.7435 192.068 83.8464 192.127 83.9649C192.191 84.1052 192.222 84.2581 192.216 84.4119C192.218 84.5666 192.186 84.7199 192.124 84.8619C192.061 85.0015 191.964 85.1237 191.842 85.2179C191.696 85.3263 191.53 85.4061 191.354 85.4529C191.126 85.5167 190.89 85.549 190.652 85.5489V85.5489Z" stroke="#3F88C0" stroke-width="0.22" stroke-miterlimit="22.93"/>
</svg>
